<?xml version="1.0" standalone="no"?>
<!DOCTYPE svg PUBLIC "-//W3C//DTD SVG 1.1//EN" "http://www.w3.org/Graphics/SVG/1.1/DTD/svg11.dtd" >
<svg>
<metadata>
Created by FontForge 20090622 at Sat Jul 30 18:26:26 2016
 By deploy user
(c) 2015 Husqvarna AB. All rights reserved.
</metadata>
<defs>
<font id="HusqvarnaGothic-Bold" horiz-adv-x="544" >
  <font-face 
    font-family="Husqvarna Gothic Bold"
    font-weight="700"
    font-stretch="normal"
    units-per-em="1000"
    panose-1="0 0 8 0 0 0 0 0 0 0"
    ascent="800"
    descent="-200"
    x-height="500"
    cap-height="700"
    bbox="-48 -210 4184 928"
    underline-thickness="50"
    underline-position="-50"
    unicode-range="U+0020-U+FB02"
  />
<missing-glyph horiz-adv-x="200" 
 />
    <glyph glyph-name="onehalf" unicode="&#x31;&#x2f;&#x32;" horiz-adv-x="764" 
d="M137 300v297l-1 1l-52 -25l-32 70l111 57h59v-400h-85zM582 700l-380 -710h-90l380 710h90zM574 410q60 0 99 -32.5t39 -85.5q0 -43 -16 -73.5t-51 -62.5l-85 -79l1 -1h146v-76h-265v66l130 130q51 50 51 96q0 18 -13 30t-36 12q-48 0 -58 -64l-84 21q25 119 142 119z
" />
    <glyph glyph-name="fi" unicode="fi" horiz-adv-x="514" 
d="M12 400v100h50v30q0 90 30 130t120 40h60v-100h-20q-35 0 -47.5 -15t-12.5 -55v-30h70v-100h-70v-400h-130v400h-50zM462 500v-500h-130v500h130zM462 690v-120h-130v120h130z" />
    <glyph glyph-name="fl" unicode="fl" horiz-adv-x="514" 
d="M12 400v100h50v30q0 90 30 130t120 40h60v-100h-20q-35 0 -47.5 -15t-12.5 -55v-30h70v-100h-70v-400h-130v400h-50zM462 700v-700h-130v700h130z" />
    <glyph glyph-name=".notdef" horiz-adv-x="200" 
 />
    <glyph glyph-name=".null" horiz-adv-x="0" 
 />
    <glyph glyph-name="nonmarkingreturn" horiz-adv-x="333" 
 />
    <glyph glyph-name="space" unicode=" " horiz-adv-x="200" 
 />
    <glyph glyph-name="exclam" unicode="!" horiz-adv-x="264" 
d="M192 120v-120h-120v120h120zM192 700v-500h-120v500h120z" />
    <glyph glyph-name="quotedbl" unicode="&#x22;" horiz-adv-x="354" 
d="M52 700h90v-230h-90v230zM212 700h90v-230h-90v230z" />
    <glyph glyph-name="numbersign" unicode="#" horiz-adv-x="654" 
d="M162 700h90v-190h150v190h90v-190h130v-86h-130v-148h130v-86h-130v-190h-90v190h-150v-190h-90v190h-130v86h130v148h-130v86h130v190zM252 424v-148h150v148h-150z" />
    <glyph glyph-name="dollar" unicode="$" horiz-adv-x="554" 
d="M312 770v-62q145 -15 190 -175l-120 -30q-20 71 -70 84v-161q44 -21 70.5 -37t61 -44.5t51.5 -67t17 -87.5q0 -87 -55.5 -138.5t-144.5 -59.5v-62h-60v61q-83 6 -138 53t-72 134l130 32q5 -38 26.5 -64t53.5 -33v183l-54.5 28.5t-49 32.5t-45.5 42.5t-28.5 52t-12.5 68.5
q0 85 50 133.5t140 55.5v61h60zM372 190q0 38 -60 74v-151q60 15 60 77zM202 520q0 -33 50 -63v130q-50 -11 -50 -67z" />
    <glyph glyph-name="percent" unicode="%" horiz-adv-x="714" 
d="M592 700l-380 -710h-90l380 710h90zM195 377q-69 0 -101 38.5t-32 128.5q0 166 133 166t133 -166q0 -90 -32 -128.5t-101 -38.5zM195 631q-47 0 -47 -87q0 -88 47 -88t47 88q0 87 -47 87zM519 -10q-69 0 -101 38.5t-32 128.5q0 166 133 166t133 -166q0 -90 -32 -128.5
t-101 -38.5zM519 244q-47 0 -47 -87q0 -88 47 -88t47 88q0 87 -47 87z" />
    <glyph glyph-name="ampersand" unicode="&#x26;" horiz-adv-x="674" 
d="M379 171l-113 141q-86 -62 -86 -114q0 -37 24 -64.5t61 -27.5q49 0 114 65zM249 548q0 -32 45 -83q65 52 65 83q0 60 -56 60q-26 0 -40 -17t-14 -43zM529 -10l-73 89q-98 -89 -191 -89q-92 0 -152.5 59t-60.5 149q0 35 10.5 64.5t34.5 55.5t43.5 42t55.5 41
q-59 75 -59 147q0 73 46 117.5t120 44.5q72 0 120 -44.5t48 -117.5q0 -52 -25.5 -89t-79.5 -79l102 -127l73 72l81 -89l-78 -77l78 -94z" />
    <glyph glyph-name="quotesingle" unicode="'" horiz-adv-x="194" 
d="M52 700h90v-230h-90v230z" />
    <glyph glyph-name="parenleft" unicode="(" horiz-adv-x="334" 
d="M52 300q0 293 160 493l70 -43q-110 -195 -110 -450q0 -252 110 -447l-70 -43q-160 200 -160 490z" />
    <glyph glyph-name="parenright" unicode=")" horiz-adv-x="334" 
d="M282 300q0 -290 -160 -490l-70 43q110 195 110 447q0 255 -110 450l70 43q160 -200 160 -493z" />
    <glyph glyph-name="asterisk" unicode="*" horiz-adv-x="406" 
d="M174 595l-10 105h77l-11 -106l99 44l25 -76l-105 -22l73 -83l-64 -46l-56 94l-55 -94l-63 45l72 84l-104 22l25 76z" />
    <glyph glyph-name="plus" unicode="+" horiz-adv-x="524" 
d="M42 278v100h170v180h100v-180h170v-100h-170v-180h-100v180h-170z" />
    <glyph glyph-name="comma" unicode="," horiz-adv-x="204" 
d="M162 120v-120l-40 -110h-60l30 110h-50v120h120z" />
    <glyph glyph-name="hyphen" unicode="-" horiz-adv-x="384" 
d="M42 238v120h300v-120h-300z" />
    <glyph glyph-name="period" unicode="." horiz-adv-x="204" 
d="M162 120v-120h-120v120h120z" />
    <glyph glyph-name="slash" unicode="/" horiz-adv-x="434" 
d="M422 710l-300 -720h-110l300 720h110z" />
    <glyph glyph-name="zero" unicode="0" 
d="M272 110q38 0 57.5 17t31 75t11.5 173q0 88 -11.5 135.5t-32 63.5t-56.5 16t-56.5 -16t-32 -63.5t-11.5 -135.5q0 -115 11.5 -173t31 -75t57.5 -17zM272 -10q-141 0 -190.5 88t-49.5 297q0 78 11 135.5t37 104.5t74 71t118 24t118 -24t74 -71t37 -104.5t11 -135.5
q0 -209 -49.5 -297t-190.5 -88z" />
    <glyph glyph-name="one" unicode="1" horiz-adv-x="354" 
d="M152 0v544h-2l-88 -44l-50 101l180 99h90v-700h-130z" />
    <glyph glyph-name="two" unicode="2" horiz-adv-x="524" 
d="M263 710q100 0 164.5 -54.5t64.5 -145.5q0 -74 -28 -128.5t-86 -110.5l-156 -151h260v-120h-440v106l223 225q87 88 87 179q0 34 -23.5 57t-65.5 23q-83 0 -101 -110l-130 34q42 196 231 196z" />
    <glyph glyph-name="three" unicode="3" 
d="M512 205q0 -109 -67 -162t-173 -53q-96 0 -163.5 47t-76.5 139l130 34q7 -44 37 -72t73 -28t69 27t26 68q0 105 -95 105h-44v120h34q47 0 68.5 19.5t21.5 60.5q0 37 -20.5 58.5t-59.5 21.5q-87 0 -101 -90l-129 34q34 176 230 176q95 0 157.5 -50t62.5 -150
q0 -44 -22.5 -82t-57.5 -57v-2q100 -54 100 -164z" />
    <glyph glyph-name="four" unicode="4" 
d="M153 264h169v259h-2l-167 -257v-2zM32 284l270 416h150v-436h80v-120h-80v-144h-130v144h-290v140z" />
    <glyph glyph-name="five" unicode="5" horiz-adv-x="534" 
d="M32 156l130 34q8 -46 31.5 -68t66.5 -22q61 0 86.5 36t25.5 112q0 64 -27 98t-75 34q-62 0 -98 -60h-120l40 380h368v-120h-261l-15 -136h2q43 46 104 46q102 0 157 -67t55 -178q0 -255 -242 -255q-105 0 -160 46.5t-68 119.5z" />
    <glyph glyph-name="six" unicode="6" horiz-adv-x="534" 
d="M172 393h2q47 49 117 49q94 0 152.5 -60.5t58.5 -147.5q0 -49 -12 -91t-37.5 -77.5t-72 -55.5t-110.5 -20q-134 0 -186 86t-52 274q0 191 52.5 275.5t187.5 84.5q100 0 150 -38t73 -118l-129 -34q-10 43 -32.5 56.5t-61.5 13.5q-51 0 -75.5 -41t-24.5 -156zM169 221
q0 -55 27 -83t75 -28t75 28t27 83t-27 83.5t-75 28.5t-75 -28.5t-27 -83.5z" />
    <glyph glyph-name="seven" unicode="7" horiz-adv-x="454" 
d="M12 580v120h430v-100l-200 -600h-140l200 580h-290z" />
    <glyph glyph-name="eight" unicode="8" 
d="M512 200q0 -103 -63 -156.5t-177 -53.5q-107 0 -173.5 54.5t-66.5 155.5q0 117 100 169v2q-70 38 -70 149q0 96 54.5 143t155.5 47q210 0 210 -190q0 -110 -70 -149v-2q100 -52 100 -169zM192 515q0 -85 80 -85q37 0 58.5 21t21.5 64q0 85 -80 85t-80 -85zM177 205
q0 -52 25 -78.5t70 -26.5t70 26.5t25 78.5t-25 78.5t-70 26.5t-70 -26.5t-25 -78.5z" />
    <glyph glyph-name="nine" unicode="9" horiz-adv-x="534" 
d="M362 307h-2q-47 -49 -117 -49q-94 0 -152.5 60.5t-58.5 147.5q0 49 12 91t37.5 77.5t72 55.5t110.5 20q134 0 186 -86t52 -274q0 -191 -52.5 -275.5t-187.5 -84.5q-100 0 -150 38t-73 118l129 34q10 -43 32.5 -56.5t61.5 -13.5q51 0 75.5 41t24.5 156zM365 479
q0 55 -27 83t-75 28t-75 -28t-27 -83t27 -83.5t75 -28.5t75 28.5t27 83.5z" />
    <glyph glyph-name="colon" unicode=":" horiz-adv-x="204" 
d="M162 120v-120h-120v120h120zM162 460v-120h-120v120h120z" />
    <glyph glyph-name="semicolon" unicode=";" horiz-adv-x="214" 
d="M162 120v-120l-40 -110h-60l30 110h-50v120h120zM162 460v-120h-120v120h120z" />
    <glyph glyph-name="less" unicode="&#x3c;" horiz-adv-x="524" 
d="M42 278v100l440 178v-110l-290 -118l290 -118v-110z" />
    <glyph glyph-name="equal" unicode="=" horiz-adv-x="524" 
d="M42 168v100h440v-100h-440zM42 388v100h440v-100h-440z" />
    <glyph glyph-name="greater" unicode="&#x3e;" horiz-adv-x="524" 
d="M482 378v-100l-440 -178v110l290 118l-290 118v110z" />
    <glyph glyph-name="question" unicode="?" horiz-adv-x="454" 
d="M282 120v-120h-120v120h120zM162 200v50q0 38 14.5 69.5t35 53.5l41 42.5t35 47t14.5 57.5q0 70 -76 70q-40 0 -59.5 -17.5t-34.5 -69.5l-120 30q25 92 75 134.5t139 42.5q101 0 158.5 -49.5t57.5 -140.5q0 -42 -16.5 -77.5t-40 -59.5l-47 -46.5t-40 -49.5t-16.5 -57v-30
h-120z" />
    <glyph glyph-name="at" unicode="@" horiz-adv-x="764" 
d="M545 85q-49 0 -72 46h-2q-36 -46 -103 -46q-71 0 -121 49.5t-50 119.5q0 71 48.5 121t113.5 50q33 0 61 -12.5t41 -31.5h2l8 33h70v-208q0 -45 25 -45q23 0 44.5 30.5t21.5 91.5q0 108 -69 174t-170 66q-109 0 -185 -78.5t-76 -190.5q0 -111 76 -187.5t185 -76.5
q110 0 168 46l54 -60q-85 -66 -222 -66q-145 0 -243 95.5t-98 248.5q0 148 99 248.5t242 100.5q128 0 223.5 -92t95.5 -211q0 -94 -43 -154.5t-124 -60.5zM283 254q0 -36 24.5 -61.5t60.5 -25.5q35 0 59 25.5t24 61.5t-24 61.5t-59 25.5q-36 0 -60.5 -25.5t-24.5 -61.5z" />
    <glyph glyph-name="A" unicode="A" horiz-adv-x="574" 
d="M189 150l-37 -150h-140l189 700h172l189 -700h-140l-37 150h-196zM219 270h136l-67 273h-2z" />
    <glyph glyph-name="B" unicode="B" horiz-adv-x="524" 
d="M387 371v-2q105 -42 105 -178q0 -89 -65 -140t-170 -51h-205v700h185q104 0 169.5 -43t65.5 -137q0 -61 -20 -94t-65 -55zM192 300v-180h55q105 0 105 91q0 48 -29 68.5t-86 20.5h-45zM192 580v-160h45q46 0 70.5 21.5t24.5 58.5q0 80 -95 80h-45z" />
    <glyph glyph-name="C" unicode="C" 
d="M272 -10q-141 0 -190.5 86.5t-49.5 298.5q0 78 11 135.5t37 104.5t74 71t118 24q200 0 235 -205l-131 -20q-10 63 -35.5 84t-68.5 21q-36 0 -56.5 -16t-32 -63.5t-11.5 -135.5q0 -115 11.5 -173t31 -75t57.5 -17q51 0 75.5 29.5t33.5 105.5l131 -20q-18 -122 -69 -178.5
t-171 -56.5z" />
    <glyph glyph-name="D" unicode="D" horiz-adv-x="534" 
d="M52 700h160q163 0 226.5 -80.5t63.5 -269.5q0 -200 -61 -275t-219 -75h-170v700zM192 580v-460h20q43 0 66.5 6t45 28.5t30 70t8.5 125.5q0 79 -8.5 126t-30 69.5t-45 28.5t-66.5 6h-20z" />
    <glyph glyph-name="E" unicode="E" horiz-adv-x="464" 
d="M52 700h370v-120h-230v-160h170v-120h-170v-180h240v-120h-380v700z" />
    <glyph glyph-name="F" unicode="F" horiz-adv-x="424" 
d="M52 700h360v-120h-220v-180h170v-120h-170v-280h-140v700z" />
    <glyph glyph-name="G" unicode="G" 
d="M272 -10q-141 0 -190.5 86.5t-49.5 298.5q0 78 11 135.5t37 104.5t74 71t118 24q200 0 235 -205l-131 -20q-10 63 -35.5 84t-68.5 21q-36 0 -56.5 -16t-32 -63.5t-11.5 -135.5q0 -115 12 -173t33.5 -75t64.5 -17q41 0 65.5 22.5t24.5 67.5v40h-97v120h237v-360h-68
l-19 60h-2q-18 -30 -58.5 -50t-92.5 -20z" />
    <glyph glyph-name="H" unicode="H" horiz-adv-x="584" 
d="M192 300v-300h-140v700h140v-280h200v280h140v-700h-140v300h-200z" />
    <glyph glyph-name="I" unicode="I" horiz-adv-x="244" 
d="M192 700v-700h-140v700h140z" />
    <glyph glyph-name="J" unicode="J" horiz-adv-x="344" 
d="M12 0v120h37q51 0 77 22t26 94v464h140v-464q0 -121 -58 -178.5t-185 -57.5h-37z" />
    <glyph glyph-name="K" unicode="K" 
d="M192 700v-290h2l178 290h150l-180 -290l190 -410h-150l-126 284h-2l-62 -97v-187h-140v700h140z" />
    <glyph glyph-name="L" unicode="L" horiz-adv-x="424" 
d="M192 700v-580h220v-120h-360v700h140z" />
    <glyph glyph-name="M" unicode="M" horiz-adv-x="724" 
d="M672 700v-700h-121v500h-2l-142 -500h-85l-147 500h-2v-500h-121v700h183l128 -439h2l126 439h181z" />
    <glyph glyph-name="N" unicode="N" horiz-adv-x="584" 
d="M532 700v-700h-126l-226 454h-2v-454h-126v700h136l216 -434h2v434h126z" />
    <glyph glyph-name="O" unicode="O" 
d="M272 110q38 0 57.5 17t31 75t11.5 173q0 88 -11.5 135.5t-32 63.5t-56.5 16t-56.5 -16t-32 -63.5t-11.5 -135.5q0 -115 11.5 -173t31 -75t57.5 -17zM272 -10q-141 0 -190.5 88t-49.5 297q0 78 11 135.5t37 104.5t74 71t118 24t118 -24t74 -71t37 -104.5t11 -135.5
q0 -209 -49.5 -297t-190.5 -88z" />
    <glyph glyph-name="P" unicode="P" horiz-adv-x="534" 
d="M52 700h215q108 0 171.5 -55t63.5 -165q0 -106 -58.5 -163t-168.5 -57h-83v-260h-140v700zM192 380h67q60 0 81.5 22.5t21.5 77.5q0 51 -22.5 75.5t-82.5 24.5h-65v-200z" />
    <glyph glyph-name="Q" unicode="Q" 
d="M272 -10q-141 0 -190.5 88t-49.5 297q0 78 11 135.5t37 104.5t74 71t118 24t118 -24t74 -71t37 -104.5t11 -135.5q0 -125 -16 -203.5t-55 -121.5l81 -130h-130l-46 77q-31 -7 -74 -7zM272 110q38 0 57.5 17t31 75t11.5 173q0 88 -11.5 135.5t-32 63.5t-56.5 16t-56.5 -16
t-32 -63.5t-11.5 -135.5q0 -115 11.5 -173t31 -75t57.5 -17z" />
    <glyph glyph-name="R" unicode="R" 
d="M52 700h215q108 0 171.5 -55t63.5 -165q0 -146 -108 -197l138 -283h-150l-121 260h-69v-260h-140v700zM192 380h67q60 0 81.5 22.5t21.5 77.5q0 51 -22.5 75.5t-82.5 24.5h-65v-200z" />
    <glyph glyph-name="S" unicode="S" horiz-adv-x="504" 
d="M472 533l-120 -30q-14 51 -38 69t-66 18q-76 0 -76 -70q0 -27 32 -50t77.5 -44t91 -48.5t77.5 -75.5t32 -112q0 -96 -66 -148t-168 -52q-93 0 -155.5 47.5t-80.5 140.5l130 32q7 -45 35.5 -72.5t70.5 -27.5q44 0 69 20.5t25 59.5q0 22 -17 41t-44.5 34.5t-60.5 31t-66 36
t-60.5 45t-44.5 61t-17 81.5q0 91 57.5 140.5t158.5 49.5q90 0 144.5 -43.5t79.5 -133.5z" />
    <glyph glyph-name="T" unicode="T" horiz-adv-x="484" 
d="M12 700h460v-120h-160v-580h-140v580h-160v120z" />
    <glyph glyph-name="U" unicode="U" horiz-adv-x="584" 
d="M192 700v-404q0 -107 24.5 -146.5t75.5 -39.5q48 0 74 38.5t26 137.5v414h140v-414q0 -138 -54 -217t-186 -79q-69 0 -117.5 22.5t-74.5 64.5t-37 94t-11 120v409h140z" />
    <glyph glyph-name="V" unicode="V" horiz-adv-x="574" 
d="M288 157l134 543h140l-189 -700h-172l-189 700h140l134 -543h2z" />
    <glyph glyph-name="W" unicode="W" horiz-adv-x="804" 
d="M462 700l104 -483h2l94 483h130l-149 -700h-142l-98 454h-2l-98 -454h-142l-149 700h130l94 -483h2l104 483h120z" />
    <glyph glyph-name="X" unicode="X" horiz-adv-x="574" 
d="M542 700l-175 -333l195 -367h-150l-121 245h-2l-127 -245h-150l197 364l-177 336h150l105 -217h2l103 217h150z" />
    <glyph glyph-name="Y" unicode="Y" horiz-adv-x="554" 
d="M278 420l114 280h150l-190 -440v-260h-140v260l-200 440h150l114 -280h2z" />
    <glyph glyph-name="Z" unicode="Z" horiz-adv-x="504" 
d="M52 700h410v-106l-280 -474h290v-120h-440v106l280 474h-260v120z" />
    <glyph glyph-name="bracketleft" unicode="[" horiz-adv-x="354" 
d="M182 710v-820h100v-80h-210v980h210v-80h-100z" />
    <glyph glyph-name="backslash" unicode="\" horiz-adv-x="434" 
d="M312 -10l-300 720h110l300 -720h-110z" />
    <glyph glyph-name="bracketright" unicode="]" horiz-adv-x="354" 
d="M172 -110v820h-100v80h210v-980h-210v80h100z" />
    <glyph glyph-name="underscore" unicode="_" horiz-adv-x="500" 
d="M502 -20v-80h-504v80h504z" />
    <glyph glyph-name="grave" unicode="`" horiz-adv-x="324" 
d="M52 690h140l80 -130h-100z" />
    <glyph glyph-name="a" unicode="a" horiz-adv-x="484" 
d="M302 165v70l-80 -32q-60 -22 -60 -68q0 -24 17.5 -37t42.5 -13q33 0 56.5 18t23.5 62zM235 410q-56 0 -70 -64l-117 18q9 70 56 108t131 38q86 0 141.5 -45t55.5 -134v-331h-110l-9 40h-1q-44 -50 -118 -50q-72 0 -117 34t-45 101q0 65 46.5 104t138.5 67l85 29v8
q0 43 -17.5 60t-49.5 17z" />
    <glyph glyph-name="b" unicode="b" horiz-adv-x="484" 
d="M52 0v700h130v-240h2q31 50 103 50q76 0 120.5 -67.5t44.5 -192.5q0 -260 -165 -260q-69 0 -113 50h-2l-10 -40h-110zM247 400q-43 0 -65 -45v-160q0 -50 19 -72.5t46 -22.5q38 0 56.5 30.5t18.5 119.5q0 150 -75 150z" />
    <glyph glyph-name="c" unicode="c" horiz-adv-x="454" 
d="M309 173l123 -19q-9 -89 -59.5 -126.5t-140.5 -37.5q-107 0 -153.5 59.5t-46.5 201.5q0 259 200 259q175 0 196 -145l-121 -19q-12 64 -75 64q-36 0 -53 -33.5t-17 -125.5q0 -93 17 -127t53 -34q32 0 52 17t25 66z" />
    <glyph glyph-name="d" unicode="d" horiz-adv-x="484" 
d="M432 700v-700h-110l-10 40h-2q-44 -50 -113 -50q-165 0 -165 260q0 125 44.5 192.5t120.5 67.5q72 0 103 -50h2v240h130zM237 400q-75 0 -75 -150q0 -89 18.5 -119.5t56.5 -30.5q27 0 46 22.5t19 72.5v160q-22 45 -65 45z" />
    <glyph glyph-name="e" unicode="e" horiz-adv-x="474" 
d="M237 90q28 0 45 15t26 58l122 -19q-13 -84 -60 -119t-133 -35q-110 0 -157.5 59.5t-47.5 201.5q0 130 48.5 194.5t156.5 64.5q107 0 156 -65t49 -194v-21h-280q0 -73 17 -106.5t58 -33.5zM237 410q-33 0 -49.5 -19.5t-22.5 -70.5h144q-10 90 -72 90z" />
    <glyph glyph-name="f" unicode="f" horiz-adv-x="284" 
d="M12 400v100h50v30q0 90 30 130t120 40h60v-100h-20q-35 0 -47.5 -15t-12.5 -55v-30h70v-100h-70v-400h-130v400h-50z" />
    <glyph glyph-name="g" unicode="g" horiz-adv-x="484" 
d="M302 40v20h-2q-31 -50 -103 -50q-75 0 -120 67t-45 183q0 126 44 188t121 62q69 0 113 -50h2l10 40h110v-440q0 -133 -47 -191.5t-153 -58.5q-83 0 -132 30.5t-62 103.5l122 19q14 -53 67 -53q75 0 75 130zM237 400q-35 0 -55 -35.5t-20 -104.5t20 -104.5t55 -35.5
q27 0 46 21t19 64v150q-22 45 -65 45z" />
    <glyph glyph-name="h" unicode="h" horiz-adv-x="504" 
d="M452 300v-300h-130v300q0 44 -16.5 72t-48.5 28q-40 0 -75 -35v-365h-130v700h130v-240h2q50 50 123 50q71 0 108 -58t37 -152z" />
    <glyph glyph-name="i" unicode="i" horiz-adv-x="234" 
d="M182 500v-500h-130v500h130zM182 690v-120h-130v120h130z" />
    <glyph glyph-name="j" unicode="j" horiz-adv-x="244" 
d="M192 500v-480q0 -111 -29 -155.5t-121 -44.5h-60v100h20q35 0 47.5 15t12.5 55v510h130zM192 690v-120h-130v120h130z" />
    <glyph glyph-name="k" unicode="k" horiz-adv-x="484" 
d="M182 700v-390h2l128 190h140l-133 -180l153 -320h-140l-91 213h-2l-57 -68v-145h-130v700h130z" />
    <glyph glyph-name="l" unicode="l" horiz-adv-x="234" 
d="M182 700v-700h-130v700h130z" />
    <glyph glyph-name="m" unicode="m" horiz-adv-x="734" 
d="M429 362q3 -29 3 -62v-300h-130v300q0 100 -55 100q-15 0 -27.5 -5.5t-18 -10.5t-19.5 -19v-365h-130v500h110l10 -40h2q50 50 123 50q76 0 108 -62h2q63 62 140 62q135 0 135 -210v-300h-130v300q0 100 -55 100q-15 0 -28.5 -6.5t-19 -11.5t-20.5 -20z" />
    <glyph glyph-name="n" unicode="n" horiz-adv-x="504" 
d="M452 300v-300h-130v300q0 44 -16.5 72t-48.5 28q-40 0 -75 -35v-365h-130v500h110l10 -40h2q22 22 60.5 36t72.5 14q71 0 108 -58t37 -152z" />
    <glyph glyph-name="o" unicode="o" horiz-adv-x="464" 
d="M232 -10q-107 0 -153.5 59.5t-46.5 201.5q0 259 200 259t200 -259q0 -142 -46.5 -201.5t-153.5 -59.5zM232 410q-36 0 -53 -33.5t-17 -125.5q0 -93 17 -127t53 -34q37 0 53.5 33.5t16.5 127.5q0 92 -16.5 125.5t-53.5 33.5z" />
    <glyph glyph-name="p" unicode="p" horiz-adv-x="484" 
d="M52 -180v680h110l10 -40h2q44 50 113 50q165 0 165 -260q0 -125 -44.5 -192.5t-120.5 -67.5q-72 0 -103 50h-2v-220h-130zM247 400q-43 0 -65 -45v-160q0 -50 19 -72.5t46 -22.5q38 0 56.5 30.5t18.5 119.5q0 150 -75 150z" />
    <glyph glyph-name="q" unicode="q" horiz-adv-x="484" 
d="M432 500v-680h-130v220h-2q-31 -50 -103 -50q-76 0 -120.5 67.5t-44.5 192.5q0 260 165 260q69 0 113 -50h2l10 40h110zM237 400q-75 0 -75 -150q0 -89 18.5 -119.5t56.5 -30.5q27 0 46 22.5t19 72.5v160q-22 45 -65 45z" />
    <glyph glyph-name="r" unicode="r" horiz-adv-x="324" 
d="M312 510v-115q-22 5 -45 5q-37 0 -61 -25t-24 -80v-295h-130v500h110l10 -50h2q40 60 138 60z" />
    <glyph glyph-name="s" unicode="s" horiz-adv-x="424" 
d="M387 383l-112 -26q-24 53 -68 53q-20 0 -32.5 -9t-12.5 -25q0 -33 80 -66q32 -13 55.5 -26t50 -34t40.5 -50.5t14 -65.5q0 -69 -55 -106.5t-136 -37.5q-76 0 -129.5 34t-69.5 108l117 27q26 -69 85 -69q57 0 57 44q0 21 -15.5 33.5t-62.5 32.5l-43.5 20.5t-42 24.5
t-39 32.5t-25.5 41t-11 52.5q0 66 45.5 102.5t124.5 36.5q72 0 116.5 -29.5t68.5 -97.5z" />
    <glyph glyph-name="t" unicode="t" horiz-adv-x="294" 
d="M12 400v100h50l14 148h116v-148h70v-100h-70v-230q0 -40 12.5 -55t47.5 -15h20v-100h-60q-90 0 -120 40t-30 130v230h-50z" />
    <glyph glyph-name="u" unicode="u" horiz-adv-x="504" 
d="M52 200v300h130v-300q0 -44 16.5 -72t48.5 -28q40 0 75 35v365h130v-500h-110l-10 40h-2q-22 -22 -60.5 -36t-72.5 -14q-71 0 -108 58t-37 152z" />
    <glyph glyph-name="v" unicode="v" horiz-adv-x="484" 
d="M462 500l-150 -500h-140l-150 500h130l89 -342h2l89 342h130z" />
    <glyph glyph-name="w" unicode="w" horiz-adv-x="714" 
d="M692 500l-130 -500h-140l-64 301h-2l-64 -301h-140l-130 500h120l79 -342h2l69 342h130l69 -342h2l79 342h120z" />
    <glyph glyph-name="x" unicode="x" horiz-adv-x="484" 
d="M448 500l-139 -237l153 -263h-130l-89 161h-2l-89 -161h-130l149 260l-136 240h130l74 -141h2l77 141h130z" />
    <glyph glyph-name="y" unicode="y" horiz-adv-x="484" 
d="M462 500l-160 -500q-15 -49 -26 -75.5t-32 -54t-53 -39t-79 -11.5h-60v100h20q38 0 62 16.5t38 63.5l-150 500h130l89 -342h2l89 342h130z" />
    <glyph glyph-name="z" unicode="z" horiz-adv-x="454" 
d="M62 500h340v-86l-220 -314h230v-100h-370v86l220 314h-200v100z" />
    <glyph glyph-name="braceleft" unicode="{" horiz-adv-x="334" 
d="M32 260v79q72 32 72 146v172q0 59 32 96t78 37h88v-80h-51q-19 0 -32 -15.5t-13 -38.5v-186q0 -111 -74 -170q14 -9 28.5 -26t30 -56.5t15.5 -87.5v-184q0 -23 13 -39.5t32 -16.5h51v-81h-88q-46 0 -78 37t-32 96v172q0 115 -72 146z" />
    <glyph glyph-name="bar" unicode="|" horiz-adv-x="264" 
d="M172 790v-980h-80v980h80z" />
    <glyph glyph-name="braceright" unicode="}" horiz-adv-x="324" 
d="M292 339v-79q-72 -31 -72 -146v-172q0 -59 -32 -96t-78 -37h-88v81h51q19 0 32 16.5t13 39.5v184q0 69 24.5 111.5t49.5 58.5q-74 59 -74 170v186q0 23 -13 38.5t-32 15.5h-51v80h88q46 0 78 -37t32 -96v-172q0 -114 72 -146z" />
    <glyph glyph-name="uni00A0" unicode="&#xa0;" horiz-adv-x="500" 
 />
    <glyph glyph-name="exclamdown" unicode="&#xa1;" horiz-adv-x="264" 
d="M192 500v-120h-120v120h120zM192 300v-500h-120v500h120z" />
    <glyph glyph-name="cent" unicode="&#xa2;" horiz-adv-x="454" 
d="M361 570l-25 -79q78 -35 92 -126l-121 -19q-2 11 -8 24l-85 -278q5 -2 18 -2q32 0 52 17t25 66l123 -19q-9 -89 -59.5 -126.5t-140.5 -37.5q-19 0 -49 4l-19 -64h-57l24 78q-52 24 -75.5 82t-23.5 161q0 259 200 259q18 0 52 -4l20 64h57zM162 251q0 -74 10 -108l82 265
q-14 2 -22 2q-36 0 -53 -33.5t-17 -125.5z" />
    <glyph glyph-name="sterling" unicode="&#xa3;" horiz-adv-x="554" 
d="M507 570l-107 -60q-33 80 -82 80q-66 0 -66 -100v-140h150l-26 -80h-124v-29q0 -73 -30 -121h290v-120h-440v109q40 47 40 121v40h-70l26 80h44v150q0 100 45.5 155t155.5 55q135 0 194 -140z" />
    <glyph glyph-name="yen" unicode="&#xa5;" horiz-adv-x="574" 
d="M89 320v80h69l-136 300h150l114 -280h2l114 280h150l-130 -300h69v-80h-103l-26 -60h129v-80h-129v-180h-140v180h-133v80h133l-28 60h-105z" />
    <glyph glyph-name="section" unicode="&#xa7;" horiz-adv-x="534" 
d="M229 300l105 -54q14 13 24 33.5t10 34.5q0 22 -15 36t-46 30l-101 54q-16 -10 -26.5 -31t-10.5 -40q0 -15 10.5 -28t19.5 -18.5t30 -16.5zM264 0q35 0 60.5 21t25.5 54q0 42 -75 78l-106 52q-60 29 -88.5 59.5t-28.5 88.5q0 78 71 139q-22 19 -34.5 49t-12.5 57
q0 73 55.5 122.5t131.5 49.5q117 0 194 -104l-85 -64q-48 60 -109 60q-28 0 -47 -18t-19 -44q0 -42 67 -75l89 -46q28 -14 46 -25t39.5 -29.5t32.5 -41t11 -49.5q0 -39 -17.5 -79.5t-45.5 -65.5q51 -45 51 -114q0 -82 -59 -132.5t-147 -50.5q-61 0 -117.5 30t-93.5 85l85 64
q23 -32 57 -51.5t69 -19.5z" />
    <glyph glyph-name="dieresis" unicode="&#xa8;" horiz-adv-x="394" 
d="M172 680v-120h-120v120h120zM342 680v-120h-120v120h120z" />
    <glyph glyph-name="copyright" unicode="&#xa9;" horiz-adv-x="824" 
d="M412 -10q-151 0 -255.5 104.5t-104.5 255.5t104.5 255.5t255.5 104.5t255.5 -104.5t104.5 -255.5t-104.5 -255.5t-255.5 -104.5zM412 626q-114 0 -193.5 -80t-79.5 -196t79.5 -195.5t193.5 -79.5t193.5 79.5t79.5 195.5t-79.5 196t-193.5 80zM294 350q0 -52 33.5 -88
t84.5 -36q61 0 95 49l65 -64q-61 -75 -160 -75q-89 0 -149.5 62.5t-60.5 151.5q0 88 60.5 150.5t149.5 62.5q94 0 159 -73l-65 -64q-32 47 -94 47q-51 0 -84.5 -35.5t-33.5 -87.5z" />
    <glyph glyph-name="ordfeminine" unicode="&#xaa;" horiz-adv-x="334" 
d="M202 514v33l-41 -15q-30 -11 -30 -34q0 -25 29 -25q42 0 42 41zM168 647q-28 0 -36 -36l-71 11q10 88 107 88q50 0 82 -25.5t32 -76.5v-188h-68l-5 17q-25 -23 -65 -23q-41 0 -66.5 19.5t-25.5 58.5q0 37 27 60t78 40l45 15v1q0 39 -34 39z" />
    <glyph glyph-name="guillemotleft" unicode="&#xab;" horiz-adv-x="594" 
d="M256 62l-204 201l204 200l56 -55l-135 -145l135 -146zM486 62l-204 201l204 200l56 -55l-135 -145l135 -146z" />
    <glyph glyph-name="registered" unicode="&#xae;" horiz-adv-x="574" 
d="M207 604h83q42 0 66.5 -21t24.5 -62q0 -48 -37 -71l50 -103h-66l-43 91h-16v-91h-62v257zM269 492h18q18 0 24.5 6t6.5 23q0 30 -32 30h-17v-59zM52 475q0 97 69 166t166 69t166 -69t69 -166t-69 -166t-166 -69t-166 69t-69 166zM113 475q0 -72 51 -123.5t123 -51.5
t123 51.5t51 123.5t-51 122.5t-123 50.5t-123 -50.5t-51 -122.5z" />
    <glyph glyph-name="macron" unicode="&#xaf;" horiz-adv-x="384" 
d="M332 660v-80h-280v80h280z" />
    <glyph glyph-name="degree" unicode="&#xb0;" horiz-adv-x="284" 
d="M12 580q0 54 38 92t92 38t92 -38t38 -92t-38 -92t-92 -38t-92 38t-38 92zM77 580q0 -27 19 -46t46 -19t46 19t19 46t-19 46t-46 19t-46 -19t-19 -46z" />
    <glyph glyph-name="plusminus" unicode="&#xb1;" horiz-adv-x="524" 
d="M42 0v100h440v-100h-440zM42 278v100h170v180h100v-180h170v-100h-170v-158h-100v158h-170z" />
    <glyph glyph-name="twosuperior" unicode="&#xb2;" horiz-adv-x="384" 
d="M194 710q60 0 99 -32.5t39 -85.5q0 -43 -16 -73.5t-51 -62.5l-85 -79l1 -1h146v-76h-265v66l130 130q51 50 51 96q0 18 -13 30t-36 12q-48 0 -58 -64l-84 21q25 119 142 119z" />
    <glyph glyph-name="threesuperior" unicode="&#xb3;" horiz-adv-x="394" 
d="M342 417q0 -65 -40 -96t-104 -31q-59 0 -99.5 28.5t-46.5 85.5l82 21q4 -26 21 -42t41 -16t38 14t14 36q0 58 -52 58h-19v74h19q25 0 34.5 10t9.5 31q0 43 -44 43q-48 0 -57 -53l-82 21q21 109 139 109q58 0 96.5 -30t38.5 -90q0 -48 -43 -76v-2q54 -32 54 -95z" />
    <glyph glyph-name="acute" unicode="&#xb4;" horiz-adv-x="324" 
d="M132 690h140l-120 -130h-100z" />
    <glyph glyph-name="mu" unicode="&#xb5;" horiz-adv-x="504" 
d="M52 -180v680h130v-300q0 -44 16.5 -72t48.5 -28q40 0 75 35v365h130v-500h-110l-10 40h-2q-22 -22 -60.5 -36t-72.5 -14q-9 0 -25 2v-172h-120z" />
    <glyph glyph-name="paragraph" unicode="&#xb6;" horiz-adv-x="594" 
d="M542 700v-91h-60v-788h-80v788h-60v-788h-80v429q-87 2 -148.5 65t-61.5 160q0 95 56.5 160t153.5 65h280z" />
    <glyph glyph-name="periodcentered" unicode="&#xb7;" horiz-adv-x="304" 
d="M212 420v-120h-120v120h120z" />
    <glyph glyph-name="cedilla" unicode="&#xb8;" horiz-adv-x="324" 
d="M52 -172l23 39q35 -29 71 -29q18 0 32.5 9.5t14.5 26.5q0 16 -14.5 25.5t-32.5 9.5q-20 0 -31 -8l-16 8l52 91h40l-22 -42l1 -1q8 3 17 3q35 0 60 -24t25 -57q0 -37 -32 -63t-91 -26q-61 0 -97 38z" />
    <glyph glyph-name="onesuperior" unicode="&#xb9;" horiz-adv-x="274" 
d="M137 300v297l-1 1l-52 -25l-32 70l111 57h59v-400h-85z" />
    <glyph glyph-name="ordmasculine" unicode="&#xba;" horiz-adv-x="334" 
d="M167 410q-62 0 -88.5 34.5t-26.5 116.5q0 149 115 149t115 -149q0 -82 -26.5 -116.5t-88.5 -34.5zM167 646q-18 0 -26 -17.5t-8 -67.5q0 -51 8 -69t26 -18q19 0 26.5 18t7.5 69q0 50 -7.5 67.5t-26.5 17.5z" />
    <glyph glyph-name="guillemotright" unicode="&#xbb;" horiz-adv-x="594" 
d="M312 263l-204 -201l-56 55l135 146l-135 145l56 55zM542 263l-204 -201l-56 55l135 146l-135 145l56 55z" />
    <glyph glyph-name="questiondown" unicode="&#xbf;" horiz-adv-x="454" 
d="M188 380v120h120v-120h-120zM308 300v-50q0 -38 -14.5 -69.5t-35 -53.5l-41 -42.5t-35 -47t-14.5 -57.5q0 -70 76 -70q40 0 59.5 17.5t34.5 69.5l120 -30q-25 -92 -75 -134.5t-139 -42.5q-101 0 -158.5 49.5t-57.5 140.5q0 42 16.5 77.5t40 59.5l47 46.5t40 49.5t16.5 57
v30h120z" />
    <glyph glyph-name="Agrave" unicode="&#xc0;" horiz-adv-x="574" 
d="M189 150l-37 -150h-140l189 700h172l189 -700h-140l-37 150h-196zM219 270h136l-67 273h-2zM137 880h140l80 -130h-100z" />
    <glyph glyph-name="Aacute" unicode="&#xc1;" horiz-adv-x="574" 
d="M189 150l-37 -150h-140l189 700h172l189 -700h-140l-37 150h-196zM219 270h136l-67 273h-2zM297 880h140l-120 -130h-100z" />
    <glyph glyph-name="Acircumflex" unicode="&#xc2;" horiz-adv-x="574" 
d="M189 150l-37 -150h-140l189 700h172l189 -700h-140l-37 150h-196zM219 270h136l-67 273h-2zM222 880h130l100 -130h-100l-65 70l-65 -70h-100z" />
    <glyph glyph-name="Atilde" unicode="&#xc3;" horiz-adv-x="574" 
d="M189 150l-37 -150h-140l189 700h172l189 -700h-140l-37 150h-196zM219 270h136l-67 273h-2zM367 870h75q-9 -53 -30 -81.5t-64 -28.5q-24 0 -57 15t-51 15q-16 0 -23.5 -6.5t-11.5 -23.5h-73q14 110 98 110q24 0 60.5 -15t47.5 -15q15 0 20.5 6t8.5 24z" />
    <glyph glyph-name="Adieresis" unicode="&#xc4;" horiz-adv-x="574" 
d="M189 150l-37 -150h-140l189 700h172l189 -700h-140l-37 150h-196zM219 270h136l-67 273h-2zM262 870v-120h-120v120h120zM432 870v-120h-120v120h120z" />
    <glyph glyph-name="Aring" unicode="&#xc5;" horiz-adv-x="574" 
d="M189 150l-37 -150h-140l189 700h172l189 -700h-140l-37 150h-196zM219 270h136l-67 273h-2zM187 829q0 41 29.5 70t70.5 29t70.5 -29t29.5 -70t-29.5 -70t-70.5 -29t-70.5 29t-29.5 70zM248 829q0 -16 11.5 -27t27.5 -11t27.5 11t11.5 27t-11.5 27t-27.5 11t-27.5 -11
t-11.5 -27z" />
    <glyph glyph-name="AE" unicode="&#xc6;" horiz-adv-x="834" 
d="M237 150l-75 -150h-150l363 700h417v-120h-230v-160h170v-120h-170v-180h240v-120h-380v150h-185zM298 270h124v241h-2z" />
    <glyph glyph-name="Ccedilla" unicode="&#xc7;" 
d="M172 -172l23 39q35 -29 71 -29q18 0 32.5 9.5t14.5 26.5q0 16 -14.5 25.5t-32.5 9.5q-20 0 -31 -8l-16 8l46 81q-137 2 -185 89t-48 296q0 78 11 135.5t37 104.5t74 71t118 24q200 0 235 -205l-131 -20q-10 63 -35.5 84t-68.5 21q-36 0 -56.5 -16t-32 -63.5t-11.5 -135.5
q0 -115 11.5 -173t31 -75t57.5 -17q51 0 75.5 29.5t33.5 105.5l131 -20q-17 -113 -61.5 -169.5t-144.5 -63.5l-17 -34l1 -1q8 3 17 3q35 0 60 -24t25 -57q0 -37 -32 -63t-91 -26q-61 0 -97 38z" />
    <glyph glyph-name="Egrave" unicode="&#xc8;" horiz-adv-x="464" 
d="M52 700h370v-120h-230v-160h170v-120h-170v-180h240v-120h-380v700zM82 880h140l80 -130h-100z" />
    <glyph glyph-name="Eacute" unicode="&#xc9;" horiz-adv-x="464" 
d="M52 700h370v-120h-230v-160h170v-120h-170v-180h240v-120h-380v700zM242 880h140l-120 -130h-100z" />
    <glyph glyph-name="Ecircumflex" unicode="&#xca;" horiz-adv-x="464" 
d="M52 700h370v-120h-230v-160h170v-120h-170v-180h240v-120h-380v700zM167 880h130l100 -130h-100l-65 70l-65 -70h-100z" />
    <glyph glyph-name="Edieresis" unicode="&#xcb;" horiz-adv-x="464" 
d="M52 700h370v-120h-230v-160h170v-120h-170v-180h240v-120h-380v700zM207 870v-120h-120v120h120zM377 870v-120h-120v120h120z" />
    <glyph glyph-name="Igrave" unicode="&#xcc;" horiz-adv-x="244" 
d="M192 700v-700h-140v700h140zM-28 880h140l80 -130h-100z" />
    <glyph glyph-name="Iacute" unicode="&#xcd;" horiz-adv-x="244" 
d="M192 700v-700h-140v700h140zM132 880h140l-120 -130h-100z" />
    <glyph glyph-name="Icircumflex" unicode="&#xce;" horiz-adv-x="244" 
d="M192 700v-700h-140v700h140zM57 880h130l100 -130h-100l-65 70l-65 -70h-100z" />
    <glyph glyph-name="Idieresis" unicode="&#xcf;" horiz-adv-x="244" 
d="M192 700v-700h-140v700h140zM97 870v-120h-120v120h120zM267 870v-120h-120v120h120z" />
    <glyph glyph-name="Eth" unicode="&#xd0;" horiz-adv-x="534" 
d="M-8 300v100h60v300h160q163 0 226.5 -80.5t63.5 -269.5q0 -200 -61 -275t-219 -75h-170v300h-60zM192 580v-180h80v-100h-80v-180h20q43 0 66.5 6t45 28.5t30 70t8.5 125.5q0 79 -8.5 126t-30 69.5t-45 28.5t-66.5 6h-20z" />
    <glyph glyph-name="Ntilde" unicode="&#xd1;" horiz-adv-x="584" 
d="M532 700v-700h-126l-226 454h-2v-454h-126v700h136l216 -434h2v434h126zM372 870h75q-9 -53 -30 -81.5t-64 -28.5q-24 0 -57 15t-51 15q-16 0 -23.5 -6.5t-11.5 -23.5h-73q14 110 98 110q24 0 60.5 -15t47.5 -15q15 0 20.5 6t8.5 24z" />
    <glyph glyph-name="Ograve" unicode="&#xd2;" 
d="M272 110q38 0 57.5 17t31 75t11.5 173q0 88 -11.5 135.5t-32 63.5t-56.5 16t-56.5 -16t-32 -63.5t-11.5 -135.5q0 -115 11.5 -173t31 -75t57.5 -17zM272 -10q-141 0 -190.5 88t-49.5 297q0 78 11 135.5t37 104.5t74 71t118 24t118 -24t74 -71t37 -104.5t11 -135.5
q0 -209 -49.5 -297t-190.5 -88zM122 880h140l80 -130h-100z" />
    <glyph glyph-name="Oacute" unicode="&#xd3;" 
d="M272 110q38 0 57.5 17t31 75t11.5 173q0 88 -11.5 135.5t-32 63.5t-56.5 16t-56.5 -16t-32 -63.5t-11.5 -135.5q0 -115 11.5 -173t31 -75t57.5 -17zM272 -10q-141 0 -190.5 88t-49.5 297q0 78 11 135.5t37 104.5t74 71t118 24t118 -24t74 -71t37 -104.5t11 -135.5
q0 -209 -49.5 -297t-190.5 -88zM282 880h140l-120 -130h-100z" />
    <glyph glyph-name="Ocircumflex" unicode="&#xd4;" 
d="M272 110q38 0 57.5 17t31 75t11.5 173q0 88 -11.5 135.5t-32 63.5t-56.5 16t-56.5 -16t-32 -63.5t-11.5 -135.5q0 -115 11.5 -173t31 -75t57.5 -17zM272 -10q-141 0 -190.5 88t-49.5 297q0 78 11 135.5t37 104.5t74 71t118 24t118 -24t74 -71t37 -104.5t11 -135.5
q0 -209 -49.5 -297t-190.5 -88zM207 880h130l100 -130h-100l-65 70l-65 -70h-100z" />
    <glyph glyph-name="Otilde" unicode="&#xd5;" 
d="M272 110q38 0 57.5 17t31 75t11.5 173q0 88 -11.5 135.5t-32 63.5t-56.5 16t-56.5 -16t-32 -63.5t-11.5 -135.5q0 -115 11.5 -173t31 -75t57.5 -17zM272 -10q-141 0 -190.5 88t-49.5 297q0 78 11 135.5t37 104.5t74 71t118 24t118 -24t74 -71t37 -104.5t11 -135.5
q0 -209 -49.5 -297t-190.5 -88zM352 870h75q-9 -53 -30 -81.5t-64 -28.5q-24 0 -57 15t-51 15q-16 0 -23.5 -6.5t-11.5 -23.5h-73q14 110 98 110q24 0 60.5 -15t47.5 -15q15 0 20.5 6t8.5 24z" />
    <glyph glyph-name="Odieresis" unicode="&#xd6;" 
d="M237 870v-120h-120v120h120zM427 870v-120h-120v120h120zM272 110q38 0 57.5 17t31 75t11.5 173q0 88 -11.5 135.5t-32 63.5t-56.5 16t-56.5 -16t-32 -63.5t-11.5 -135.5q0 -115 11.5 -173t31 -75t57.5 -17zM272 -10q-141 0 -190.5 88t-49.5 297q0 78 11 135.5t37 104.5
t74 71t118 24t118 -24t74 -71t37 -104.5t11 -135.5q0 -209 -49.5 -297t-190.5 -88z" />
    <glyph glyph-name="multiply" unicode="&#xd7;" horiz-adv-x="524" 
d="M52 467l71 71l139 -139l139 139l71 -71l-139 -139l139 -139l-71 -71l-139 139l-139 -139l-71 71l139 139z" />
    <glyph glyph-name="Oslash" unicode="&#xd8;" 
d="M512 702l-48 -87q48 -80 48 -240q0 -209 -49.5 -297t-190.5 -88q-81 0 -133 29l-37 -68l-70 39l49 89q-49 81 -49 296q0 78 11 135.5t37 104.5t74 71t118 24q83 0 135 -35l35 65zM172 375q0 -57 4 -121l166 304q-21 32 -70 32q-36 0 -56.5 -16t-32 -63.5t-11.5 -135.5z
M272 110q38 0 57.5 17t31 75t11.5 173q0 27 -2 67l-166 -303q19 -29 68 -29z" />
    <glyph glyph-name="Ugrave" unicode="&#xd9;" horiz-adv-x="584" 
d="M192 700v-404q0 -107 24.5 -146.5t75.5 -39.5q48 0 74 38.5t26 137.5v414h140v-414q0 -138 -54 -217t-186 -79q-69 0 -117.5 22.5t-74.5 64.5t-37 94t-11 120v409h140zM142 880h140l80 -130h-100z" />
    <glyph glyph-name="Uacute" unicode="&#xda;" horiz-adv-x="584" 
d="M192 700v-404q0 -107 24.5 -146.5t75.5 -39.5q48 0 74 38.5t26 137.5v414h140v-414q0 -138 -54 -217t-186 -79q-69 0 -117.5 22.5t-74.5 64.5t-37 94t-11 120v409h140zM302 880h140l-120 -130h-100z" />
    <glyph glyph-name="Ucircumflex" unicode="&#xdb;" horiz-adv-x="584" 
d="M192 700v-404q0 -107 24.5 -146.5t75.5 -39.5q48 0 74 38.5t26 137.5v414h140v-414q0 -138 -54 -217t-186 -79q-69 0 -117.5 22.5t-74.5 64.5t-37 94t-11 120v409h140zM227 880h130l100 -130h-100l-65 70l-65 -70h-100z" />
    <glyph glyph-name="Udieresis" unicode="&#xdc;" horiz-adv-x="584" 
d="M257 870v-120h-120v120h120zM447 870v-120h-120v120h120zM192 700v-404q0 -107 24.5 -146.5t75.5 -39.5q48 0 74 38.5t26 137.5v414h140v-414q0 -138 -54 -217t-186 -79q-69 0 -117.5 22.5t-74.5 64.5t-37 94t-11 120v409h140z" />
    <glyph glyph-name="Yacute" unicode="&#xdd;" horiz-adv-x="554" 
d="M278 420l114 280h150l-190 -440v-260h-140v260l-200 440h150l114 -280h2zM287 880h140l-120 -130h-100z" />
    <glyph glyph-name="Thorn" unicode="&#xde;" horiz-adv-x="534" 
d="M52 700h140v-120h75q108 0 171.5 -55t63.5 -165q0 -106 -58.5 -163t-168.5 -57h-83v-140h-140v700zM192 260h67q60 0 81.5 22.5t21.5 77.5q0 51 -22.5 75.5t-82.5 24.5h-65v-200z" />
    <glyph glyph-name="germandbls" unicode="&#xdf;" horiz-adv-x="534" 
d="M502 205q0 -109 -63 -162t-177 -53h-40v120h40q95 0 95 95q0 49 -22.5 72t-72.5 23h-30v120h20q44 0 57 21.5t13 68.5q0 37 -18 58.5t-52 21.5q-33 0 -51.5 -21.5t-18.5 -58.5v-510h-130v510q0 101 55 150.5t145 49.5q89 0 149.5 -50t60.5 -150q0 -116 -60 -149v-2
q57 -30 78.5 -67t21.5 -87z" />
    <glyph glyph-name="agrave" unicode="&#xe0;" horiz-adv-x="484" 
d="M302 165v70l-80 -32q-60 -22 -60 -68q0 -24 17.5 -37t42.5 -13q33 0 56.5 18t23.5 62zM235 410q-56 0 -70 -64l-117 18q9 70 56 108t131 38q86 0 141.5 -45t55.5 -134v-331h-110l-9 40h-1q-44 -50 -118 -50q-72 0 -117 34t-45 101q0 65 46.5 104t138.5 67l85 29v8
q0 43 -17.5 60t-49.5 17zM92 690h140l80 -130h-100z" />
    <glyph glyph-name="aacute" unicode="&#xe1;" horiz-adv-x="484" 
d="M302 165v70l-80 -32q-60 -22 -60 -68q0 -24 17.5 -37t42.5 -13q33 0 56.5 18t23.5 62zM235 410q-56 0 -70 -64l-117 18q9 70 56 108t131 38q86 0 141.5 -45t55.5 -134v-331h-110l-9 40h-1q-44 -50 -118 -50q-72 0 -117 34t-45 101q0 65 46.5 104t138.5 67l85 29v8
q0 43 -17.5 60t-49.5 17zM252 690h140l-120 -130h-100z" />
    <glyph glyph-name="acircumflex" unicode="&#xe2;" horiz-adv-x="484" 
d="M302 165v70l-80 -32q-60 -22 -60 -68q0 -24 17.5 -37t42.5 -13q33 0 56.5 18t23.5 62zM235 410q-56 0 -70 -64l-117 18q9 70 56 108t131 38q86 0 141.5 -45t55.5 -134v-331h-110l-9 40h-1q-44 -50 -118 -50q-72 0 -117 34t-45 101q0 65 46.5 104t138.5 67l85 29v8
q0 43 -17.5 60t-49.5 17zM177 690h130l100 -130h-100l-65 70l-65 -70h-100z" />
    <glyph glyph-name="atilde" unicode="&#xe3;" horiz-adv-x="484" 
d="M302 165v70l-80 -32q-60 -22 -60 -68q0 -24 17.5 -37t42.5 -13q33 0 56.5 18t23.5 62zM235 410q-56 0 -70 -64l-117 18q9 70 56 108t131 38q86 0 141.5 -45t55.5 -134v-331h-110l-9 40h-1q-44 -50 -118 -50q-72 0 -117 34t-45 101q0 65 46.5 104t138.5 67l85 29v8
q0 43 -17.5 60t-49.5 17zM322 680h75q-9 -53 -30 -81.5t-64 -28.5q-24 0 -57 15t-51 15q-16 0 -23.5 -6.5t-11.5 -23.5h-73q14 110 98 110q24 0 60.5 -15t47.5 -15q15 0 20.5 6t8.5 24z" />
    <glyph glyph-name="adieresis" unicode="&#xe4;" horiz-adv-x="484" 
d="M302 165v70l-80 -32q-60 -22 -60 -68q0 -24 17.5 -37t42.5 -13q33 0 56.5 18t23.5 62zM235 410q-56 0 -70 -64l-117 18q9 70 56 108t131 38q86 0 141.5 -45t55.5 -134v-331h-110l-9 40h-1q-44 -50 -118 -50q-72 0 -117 34t-45 101q0 65 46.5 104t138.5 67l85 29v8
q0 43 -17.5 60t-49.5 17zM215 680v-120h-120v120h120zM385 680v-120h-120v120h120z" />
    <glyph glyph-name="aring" unicode="&#xe5;" horiz-adv-x="484" 
d="M302 165v70l-80 -32q-60 -22 -60 -68q0 -24 17.5 -37t42.5 -13q33 0 56.5 18t23.5 62zM235 410q-56 0 -70 -64l-117 18q9 70 56 108t131 38q86 0 141.5 -45t55.5 -134v-331h-110l-9 40h-1q-44 -50 -118 -50q-72 0 -117 34t-45 101q0 65 46.5 104t138.5 67l85 29v8
q0 43 -17.5 60t-49.5 17zM140 641q0 41 29.5 70t70.5 29t70.5 -29t29.5 -70t-29.5 -70t-70.5 -29t-70.5 29t-29.5 70zM201 641q0 -16 11.5 -27t27.5 -11t27.5 11t11.5 27t-11.5 27t-27.5 11t-27.5 -11t-11.5 -27z" />
    <glyph glyph-name="ae" unicode="&#xe6;" horiz-adv-x="744" 
d="M507 90q28 0 45 15t26 58l122 -19q-13 -84 -60 -119t-133 -35q-98 0 -144 73q-41 -73 -169 -73q-72 0 -117 34t-45 101q0 64 46 101.5t139 69.5l85 29v8q0 43 -17.5 60t-49.5 17q-56 0 -70 -64l-117 18q9 70 56 108t131 38q86 0 138 -42q48 42 134 42q107 0 156 -65
t49 -194v-21h-280q0 -73 17 -106.5t58 -33.5zM302 165v70l-80 -32q-60 -23 -60 -68q0 -24 17.5 -37t42.5 -13q33 0 56.5 18t23.5 62zM507 410q-33 0 -49.5 -19.5t-22.5 -70.5h144q-10 90 -72 90z" />
    <glyph glyph-name="ccedilla" unicode="&#xe7;" horiz-adv-x="454" 
d="M132 -172l23 39q35 -29 71 -29q18 0 32.5 9.5t14.5 26.5q0 16 -14.5 25.5t-32.5 9.5q-20 0 -31 -8l-16 8l46 81q-103 2 -148 61.5t-45 199.5q0 259 200 259q175 0 196 -145l-121 -19q-12 64 -75 64q-36 0 -53 -33.5t-17 -125.5q0 -93 17 -127t53 -34q32 0 52 17t25 66
l123 -19q-9 -81 -50.5 -119t-115.5 -44l-17 -33l1 -1q8 3 17 3q35 0 60 -24t25 -57q0 -37 -32 -63t-91 -26q-61 0 -97 38z" />
    <glyph glyph-name="egrave" unicode="&#xe8;" horiz-adv-x="474" 
d="M237 90q28 0 45 15t26 58l122 -19q-13 -84 -60 -119t-133 -35q-110 0 -157.5 59.5t-47.5 201.5q0 130 48.5 194.5t156.5 64.5q107 0 156 -65t49 -194v-21h-280q0 -73 17 -106.5t58 -33.5zM237 410q-33 0 -49.5 -19.5t-22.5 -70.5h144q-10 90 -72 90zM87 690h140l80 -130
h-100z" />
    <glyph glyph-name="eacute" unicode="&#xe9;" horiz-adv-x="474" 
d="M237 90q28 0 45 15t26 58l122 -19q-13 -84 -60 -119t-133 -35q-110 0 -157.5 59.5t-47.5 201.5q0 130 48.5 194.5t156.5 64.5q107 0 156 -65t49 -194v-21h-280q0 -73 17 -106.5t58 -33.5zM237 410q-33 0 -49.5 -19.5t-22.5 -70.5h144q-10 90 -72 90zM247 690h140
l-120 -130h-100z" />
    <glyph glyph-name="ecircumflex" unicode="&#xea;" horiz-adv-x="474" 
d="M237 90q28 0 45 15t26 58l122 -19q-13 -84 -60 -119t-133 -35q-110 0 -157.5 59.5t-47.5 201.5q0 130 48.5 194.5t156.5 64.5q107 0 156 -65t49 -194v-21h-280q0 -73 17 -106.5t58 -33.5zM237 410q-33 0 -49.5 -19.5t-22.5 -70.5h144q-10 90 -72 90zM172 690h130
l100 -130h-100l-65 70l-65 -70h-100z" />
    <glyph glyph-name="edieresis" unicode="&#xeb;" horiz-adv-x="474" 
d="M237 90q28 0 45 15t26 58l122 -19q-13 -84 -60 -119t-133 -35q-110 0 -157.5 59.5t-47.5 201.5q0 130 48.5 194.5t156.5 64.5q107 0 156 -65t49 -194v-21h-280q0 -73 17 -106.5t58 -33.5zM237 410q-33 0 -49.5 -19.5t-22.5 -70.5h144q-10 90 -72 90zM212 680v-120h-120
v120h120zM382 680v-120h-120v120h120z" />
    <glyph glyph-name="igrave" unicode="&#xec;" horiz-adv-x="234" 
d="M182 500v-500h-130v500h130zM-38 690h140l80 -130h-100z" />
    <glyph glyph-name="iacute" unicode="&#xed;" horiz-adv-x="234" 
d="M182 500v-500h-130v500h130zM132 690h140l-120 -130h-100z" />
    <glyph glyph-name="icircumflex" unicode="&#xee;" horiz-adv-x="234" 
d="M182 500v-500h-130v500h130zM52 690h130l100 -130h-100l-65 70l-65 -70h-100z" />
    <glyph glyph-name="idieresis" unicode="&#xef;" horiz-adv-x="234" 
d="M182 500v-500h-130v500h130zM92 680v-120h-120v120h120zM262 680v-120h-120v120h120z" />
    <glyph glyph-name="eth" unicode="&#xf0;" horiz-adv-x="464" 
d="M232 -10q-106 0 -153 57t-47 184q0 118 50 178.5t160 60.5q-5 14 -21.5 36.5t-28.5 33.5l-71 -57l-42 53l67 53q-31 33 -84 71l62 60q52 -28 96 -68l73 58l42 -54l-67 -52q79 -88 121.5 -177.5t42.5 -195.5q0 -128 -47 -184.5t-153 -56.5zM232 370q-36 0 -53 -29
t-17 -110q0 -82 17 -111.5t53 -29.5q37 0 53.5 29t16.5 112q0 81 -16.5 110t-53.5 29z" />
    <glyph glyph-name="ntilde" unicode="&#xf1;" horiz-adv-x="504" 
d="M452 300v-300h-130v300q0 44 -16.5 72t-48.5 28q-40 0 -75 -35v-365h-130v500h110l10 -40h2q22 22 60.5 36t72.5 14q71 0 108 -58t37 -152zM332 680h75q-9 -53 -30 -81.5t-64 -28.5q-24 0 -57 15t-51 15q-16 0 -23.5 -6.5t-11.5 -23.5h-73q14 110 98 110q24 0 60.5 -15
t47.5 -15q15 0 20.5 6t8.5 24z" />
    <glyph glyph-name="ograve" unicode="&#xf2;" horiz-adv-x="464" 
d="M232 -10q-107 0 -153.5 59.5t-46.5 201.5q0 259 200 259t200 -259q0 -142 -46.5 -201.5t-153.5 -59.5zM232 410q-36 0 -53 -33.5t-17 -125.5q0 -93 17 -127t53 -34q37 0 53.5 33.5t16.5 127.5q0 92 -16.5 125.5t-53.5 33.5zM82 690h140l80 -130h-100z" />
    <glyph glyph-name="oacute" unicode="&#xf3;" horiz-adv-x="464" 
d="M232 -10q-107 0 -153.5 59.5t-46.5 201.5q0 259 200 259t200 -259q0 -142 -46.5 -201.5t-153.5 -59.5zM232 410q-36 0 -53 -33.5t-17 -125.5q0 -93 17 -127t53 -34q37 0 53.5 33.5t16.5 127.5q0 92 -16.5 125.5t-53.5 33.5zM242 690h140l-120 -130h-100z" />
    <glyph glyph-name="ocircumflex" unicode="&#xf4;" horiz-adv-x="464" 
d="M232 -10q-107 0 -153.5 59.5t-46.5 201.5q0 259 200 259t200 -259q0 -142 -46.5 -201.5t-153.5 -59.5zM232 410q-36 0 -53 -33.5t-17 -125.5q0 -93 17 -127t53 -34q37 0 53.5 33.5t16.5 127.5q0 92 -16.5 125.5t-53.5 33.5zM167 690h130l100 -130h-100l-65 70l-65 -70
h-100z" />
    <glyph glyph-name="otilde" unicode="&#xf5;" horiz-adv-x="464" 
d="M232 -10q-107 0 -153.5 59.5t-46.5 201.5q0 259 200 259t200 -259q0 -142 -46.5 -201.5t-153.5 -59.5zM232 410q-36 0 -53 -33.5t-17 -125.5q0 -93 17 -127t53 -34q37 0 53.5 33.5t16.5 127.5q0 92 -16.5 125.5t-53.5 33.5zM312 680h75q-9 -53 -30 -81.5t-64 -28.5
q-24 0 -57 15t-51 15q-16 0 -23.5 -6.5t-11.5 -23.5h-73q14 110 98 110q24 0 60.5 -15t47.5 -15q15 0 20.5 6t8.5 24z" />
    <glyph glyph-name="odieresis" unicode="&#xf6;" horiz-adv-x="464" 
d="M232 -10q-107 0 -153.5 59.5t-46.5 201.5q0 259 200 259t200 -259q0 -142 -46.5 -201.5t-153.5 -59.5zM232 410q-36 0 -53 -33.5t-17 -125.5q0 -93 17 -127t53 -34q37 0 53.5 33.5t16.5 127.5q0 92 -16.5 125.5t-53.5 33.5zM207 680v-120h-120v120h120zM377 680v-120
h-120v120h120z" />
    <glyph glyph-name="divide" unicode="&#xf7;" horiz-adv-x="524" 
d="M322 218v-120h-120v120h120zM322 558v-120h-120v120h120zM42 278v100h440v-100h-440z" />
    <glyph glyph-name="oslash" unicode="&#xf8;" horiz-adv-x="464" 
d="M422 500l-35 -60q45 -66 45 -189q0 -142 -46.5 -201.5t-153.5 -59.5q-57 0 -99 17l-31 -52l-60 35l35 61q-45 60 -45 200q0 259 200 259q59 0 102 -23l28 48zM232 410q-36 0 -53 -33.5t-17 -125.5q0 -38 1 -54l114 193q-16 20 -45 20zM302 251q0 8 -0.5 22.5t-0.5 20.5
l-110 -188q15 -16 41 -16q37 0 53.5 33.5t16.5 127.5z" />
    <glyph glyph-name="ugrave" unicode="&#xf9;" horiz-adv-x="504" 
d="M52 200v300h130v-300q0 -44 16.5 -72t48.5 -28q40 0 75 35v365h130v-500h-110l-10 40h-2q-22 -22 -60.5 -36t-72.5 -14q-71 0 -108 58t-37 152zM102 690h140l80 -130h-100z" />
    <glyph glyph-name="uacute" unicode="&#xfa;" horiz-adv-x="504" 
d="M52 200v300h130v-300q0 -44 16.5 -72t48.5 -28q40 0 75 35v365h130v-500h-110l-10 40h-2q-22 -22 -60.5 -36t-72.5 -14q-71 0 -108 58t-37 152zM262 690h140l-120 -130h-100z" />
    <glyph glyph-name="ucircumflex" unicode="&#xfb;" horiz-adv-x="504" 
d="M52 200v300h130v-300q0 -44 16.5 -72t48.5 -28q40 0 75 35v365h130v-500h-110l-10 40h-2q-22 -22 -60.5 -36t-72.5 -14q-71 0 -108 58t-37 152zM187 690h130l100 -130h-100l-65 70l-65 -70h-100z" />
    <glyph glyph-name="udieresis" unicode="&#xfc;" horiz-adv-x="504" 
d="M52 200v300h130v-300q0 -44 16.5 -72t48.5 -28q40 0 75 35v365h130v-500h-110l-10 40h-2q-22 -22 -60.5 -36t-72.5 -14q-71 0 -108 58t-37 152zM227 680v-120h-120v120h120zM397 680v-120h-120v120h120z" />
    <glyph glyph-name="yacute" unicode="&#xfd;" horiz-adv-x="484" 
d="M462 500l-160 -500q-15 -49 -26 -75.5t-32 -54t-53 -39t-79 -11.5h-60v100h20q38 0 62 16.5t38 63.5l-150 500h130l89 -342h2l89 342h130zM252 690h140l-120 -130h-100z" />
    <glyph glyph-name="thorn" unicode="&#xfe;" horiz-adv-x="484" 
d="M52 -180v880h130v-230h2q42 40 103 40q165 0 165 -260q0 -125 -44.5 -192.5t-120.5 -67.5q-72 0 -103 50h-2v-220h-130zM247 400q-43 0 -65 -45v-160q0 -50 19 -72.5t46 -22.5q38 0 56.5 30.5t18.5 119.5q0 150 -75 150z" />
    <glyph glyph-name="ydieresis" unicode="&#xff;" horiz-adv-x="484" 
d="M462 500l-160 -500q-15 -49 -26 -75.5t-32 -54t-53 -39t-79 -11.5h-60v100h20q38 0 62 16.5t38 63.5l-150 500h130l89 -342h2l89 342h130zM217 680v-120h-120v120h120zM387 680v-120h-120v120h120z" />
    <glyph glyph-name="Amacron" unicode="&#x100;" horiz-adv-x="574" 
d="M189 150l-37 -150h-140l189 700h172l189 -700h-140l-37 150h-196zM219 270h136l-67 273h-2zM427 850v-80h-280v80h280z" />
    <glyph glyph-name="amacron" unicode="&#x101;" horiz-adv-x="484" 
d="M302 165v70l-80 -32q-60 -22 -60 -68q0 -24 17.5 -37t42.5 -13q33 0 56.5 18t23.5 62zM235 410q-56 0 -70 -64l-117 18q9 70 56 108t131 38q86 0 141.5 -45t55.5 -134v-331h-110l-9 40h-1q-44 -50 -118 -50q-72 0 -117 34t-45 101q0 65 46.5 104t138.5 67l85 29v8
q0 43 -17.5 60t-49.5 17zM375 660v-80h-280v80h280z" />
    <glyph glyph-name="Abreve" unicode="&#x102;" horiz-adv-x="574" 
d="M189 150l-37 -150h-140l189 700h172l189 -700h-140l-37 150h-196zM219 270h136l-67 273h-2zM352 880h80q-19 -130 -145 -130q-119 0 -145 130h80q11 -60 65 -60t65 60z" />
    <glyph glyph-name="abreve" unicode="&#x103;" horiz-adv-x="484" 
d="M302 165v70l-80 -32q-60 -22 -60 -68q0 -24 17.5 -37t42.5 -13q33 0 56.5 18t23.5 62zM235 410q-56 0 -70 -64l-117 18q9 70 56 108t131 38q86 0 141.5 -45t55.5 -134v-331h-110l-9 40h-1q-44 -50 -118 -50q-72 0 -117 34t-45 101q0 65 46.5 104t138.5 67l85 29v8
q0 43 -17.5 60t-49.5 17zM300 680h80q-19 -130 -145 -130q-119 0 -145 130h80q11 -60 65 -60t65 60z" />
    <glyph glyph-name="Aogonek" unicode="&#x104;" horiz-adv-x="574" 
d="M534 -158q34 0 68 25l26 -40q-42 -37 -97 -37q-56 0 -89.5 22t-33.5 63q0 67 104 125h-90l-37 150h-196l-37 -150h-140l189 700h172l189 -700q-80 -58 -80 -115q0 -21 14 -32t38 -11zM219 270h136l-67 273h-2z" />
    <glyph glyph-name="aogonek" unicode="&#x105;" horiz-adv-x="484" 
d="M404 -158q34 0 68 25l26 -40q-42 -37 -97 -37q-56 0 -89.5 22t-33.5 63q0 67 104 125h-60l-9 40h-1q-44 -50 -118 -50q-72 0 -117 34t-45 101q0 65 46.5 104t138.5 67l85 29v8q0 43 -17.5 60t-49.5 17q-56 0 -70 -64l-117 18q9 70 56 108t131 38q86 0 141.5 -45
t55.5 -134v-331q-80 -58 -80 -115q0 -21 14 -32t38 -11zM302 165v70l-80 -32q-60 -22 -60 -68q0 -24 17.5 -37t42.5 -13q33 0 56.5 18t23.5 62z" />
    <glyph glyph-name="Cacute" unicode="&#x106;" 
d="M272 -10q-141 0 -190.5 86.5t-49.5 298.5q0 78 11 135.5t37 104.5t74 71t118 24q200 0 235 -205l-131 -20q-10 63 -35.5 84t-68.5 21q-36 0 -56.5 -16t-32 -63.5t-11.5 -135.5q0 -115 11.5 -173t31 -75t57.5 -17q51 0 75.5 29.5t33.5 105.5l131 -20q-18 -122 -69 -178.5
t-171 -56.5zM292 880h140l-120 -130h-100z" />
    <glyph glyph-name="cacute" unicode="&#x107;" horiz-adv-x="454" 
d="M252 690h140l-120 -130h-100zM309 173l123 -19q-9 -89 -59.5 -126.5t-140.5 -37.5q-107 0 -153.5 59.5t-46.5 201.5q0 259 200 259q175 0 196 -145l-121 -19q-12 64 -75 64q-36 0 -53 -33.5t-17 -125.5q0 -93 17 -127t53 -34q32 0 52 17t25 66z" />
    <glyph glyph-name="Ccaron" unicode="&#x10c;" 
d="M272 -10q-141 0 -190.5 86.5t-49.5 298.5q0 78 11 135.5t37 104.5t74 71t118 24q200 0 235 -205l-131 -20q-10 63 -35.5 84t-68.5 21q-36 0 -56.5 -16t-32 -63.5t-11.5 -135.5q0 -115 11.5 -173t31 -75t57.5 -17q51 0 75.5 29.5t33.5 105.5l131 -20q-18 -122 -69 -178.5
t-171 -56.5zM338 750h-130l-100 130h100l65 -70l65 70h100z" />
    <glyph glyph-name="ccaron" unicode="&#x10d;" horiz-adv-x="454" 
d="M309 173l123 -19q-9 -89 -59.5 -126.5t-140.5 -37.5q-107 0 -153.5 59.5t-46.5 201.5q0 259 200 259q175 0 196 -145l-121 -19q-12 64 -75 64q-36 0 -53 -33.5t-17 -125.5q0 -93 17 -127t53 -34q32 0 52 17t25 66zM299 560h-130l-100 130h100l65 -70l65 70h100z" />
    <glyph glyph-name="Dcaron" unicode="&#x10e;" horiz-adv-x="534" 
d="M52 700h160q163 0 226.5 -80.5t63.5 -269.5q0 -200 -61 -275t-219 -75h-170v700zM192 580v-460h20q43 0 66.5 6t45 28.5t30 70t8.5 125.5q0 79 -8.5 126t-30 69.5t-45 28.5t-66.5 6h-20zM297 750h-130l-100 130h100l65 -70l65 70h100z" />
    <glyph glyph-name="dcaron" unicode="&#x10f;" horiz-adv-x="564" 
d="M432 700v-700h-110l-10 40h-2q-44 -50 -113 -50q-165 0 -165 260q0 125 44.5 192.5t120.5 67.5q72 0 103 -50h2v240h130zM237 400q-75 0 -75 -150q0 -89 18.5 -119.5t56.5 -30.5q27 0 46 22.5t19 72.5v160q-22 45 -65 45zM572 710v-100l-29 -70h-45l22 70h-48v100h100z
" />
    <glyph glyph-name="Dcroat" unicode="&#x110;" horiz-adv-x="534" 
d="M-8 300v100h60v300h160q163 0 226.5 -80.5t63.5 -269.5q0 -200 -61 -275t-219 -75h-170v300h-60zM192 580v-180h80v-100h-80v-180h20q43 0 66.5 6t45 28.5t30 70t8.5 125.5q0 79 -8.5 126t-30 69.5t-45 28.5t-66.5 6h-20z" />
    <glyph glyph-name="dcroat" unicode="&#x111;" horiz-adv-x="474" 
d="M432 700v-80h50v-80h-50v-540h-110l-10 40h-2q-44 -50 -113 -50q-165 0 -165 260q0 125 44.5 192.5t120.5 67.5q72 0 103 -50h2v80h-100v80h100v80h130zM237 400q-75 0 -75 -150q0 -89 18.5 -119.5t56.5 -30.5q27 0 46 22.5t19 72.5v160q-22 45 -65 45z" />
    <glyph glyph-name="Emacron" unicode="&#x112;" horiz-adv-x="464" 
d="M52 700h370v-120h-230v-160h170v-120h-170v-180h240v-120h-380v700zM372 850v-80h-280v80h280z" />
    <glyph glyph-name="emacron" unicode="&#x113;" horiz-adv-x="474" 
d="M237 90q28 0 45 15t26 58l122 -19q-13 -84 -60 -119t-133 -35q-110 0 -157.5 59.5t-47.5 201.5q0 130 48.5 194.5t156.5 64.5q107 0 156 -65t49 -194v-21h-280q0 -73 17 -106.5t58 -33.5zM237 410q-33 0 -49.5 -19.5t-22.5 -70.5h144q-10 90 -72 90zM378 660v-80h-280v80
h280z" />
    <glyph glyph-name="Edotaccent" unicode="&#x116;" horiz-adv-x="464" 
d="M52 700h370v-120h-230v-160h170v-120h-170v-180h240v-120h-380v700zM292 870v-120h-120v120h120z" />
    <glyph glyph-name="edotaccent" unicode="&#x117;" horiz-adv-x="474" 
d="M237 90q28 0 45 15t26 58l122 -19q-13 -84 -60 -119t-133 -35q-110 0 -157.5 59.5t-47.5 201.5q0 130 48.5 194.5t156.5 64.5q107 0 156 -65t49 -194v-21h-280q0 -73 17 -106.5t58 -33.5zM237 410q-33 0 -49.5 -19.5t-22.5 -70.5h144q-10 90 -72 90zM297 680v-120h-120
v120h120z" />
    <glyph glyph-name="Eogonek" unicode="&#x118;" horiz-adv-x="464" 
d="M404 -158q34 0 68 25l26 -40q-42 -37 -97 -37q-56 0 -89.5 22t-33.5 63q0 67 104 125h-330v700h370v-120h-230v-160h170v-120h-170v-180h240v-120q-80 -58 -80 -115q0 -21 14 -32t38 -11z" />
    <glyph glyph-name="eogonek" unicode="&#x119;" horiz-adv-x="474" 
d="M258 -158q34 0 68 25l26 -40q-42 -37 -97 -37q-56 0 -89.5 22t-33.5 63q0 63 87 116q-100 4 -143.5 63.5t-43.5 196.5q0 130 48.5 194.5t156.5 64.5q107 0 156 -65t49 -194v-21h-280q0 -73 17 -106.5t58 -33.5q28 0 45 15t26 58l122 -19q-12 -74 -50 -109.5t-105 -42.5
q-69 -54 -69 -107q0 -21 14 -32t38 -11zM237 410q-33 0 -49.5 -19.5t-22.5 -70.5h144q-10 90 -72 90z" />
    <glyph glyph-name="Ecaron" unicode="&#x11a;" horiz-adv-x="464" 
d="M52 700h370v-120h-230v-160h170v-120h-170v-180h240v-120h-380v700zM297 750h-130l-100 130h100l65 -70l65 70h100z" />
    <glyph glyph-name="ecaron" unicode="&#x11b;" horiz-adv-x="474" 
d="M237 90q28 0 45 15t26 58l122 -19q-13 -84 -60 -119t-133 -35q-110 0 -157.5 59.5t-47.5 201.5q0 130 48.5 194.5t156.5 64.5q107 0 156 -65t49 -194v-21h-280q0 -73 17 -106.5t58 -33.5zM237 410q-33 0 -49.5 -19.5t-22.5 -70.5h144q-10 90 -72 90zM303 560h-130
l-100 130h100l65 -70l65 70h100z" />
    <glyph glyph-name="Gbreve" unicode="&#x11e;" 
d="M272 -10q-141 0 -190.5 86.5t-49.5 298.5q0 78 11 135.5t37 104.5t74 71t118 24q200 0 235 -205l-131 -20q-10 63 -35.5 84t-68.5 21q-36 0 -56.5 -16t-32 -63.5t-11.5 -135.5q0 -115 12 -173t33.5 -75t64.5 -17q41 0 65.5 22.5t24.5 67.5v40h-97v120h237v-360h-68
l-19 60h-2q-18 -30 -58.5 -50t-92.5 -20zM340 870h80q-19 -130 -145 -130q-119 0 -145 130h80q11 -60 65 -60t65 60z" />
    <glyph glyph-name="gbreve" unicode="&#x11f;" horiz-adv-x="484" 
d="M302 40v20h-2q-31 -50 -103 -50q-75 0 -120 67t-45 183q0 126 44 188t121 62q69 0 113 -50h2l10 40h110v-440q0 -133 -47 -191.5t-153 -58.5q-83 0 -132 30.5t-62 103.5l122 19q14 -53 67 -53q75 0 75 130zM237 400q-35 0 -55 -35.5t-20 -104.5t20 -104.5t55 -35.5
q27 0 46 21t19 64v150q-22 45 -65 45zM314 680h80q-19 -130 -145 -130q-119 0 -145 130h80q11 -60 65 -60t65 60z" />
    <glyph glyph-name="Gcommaaccent" unicode="&#x122;" 
d="M272 -10q-141 0 -190.5 86.5t-49.5 298.5q0 78 11 135.5t37 104.5t74 71t118 24q200 0 235 -205l-131 -20q-10 63 -35.5 84t-68.5 21q-36 0 -56.5 -16t-32 -63.5t-11.5 -135.5q0 -115 12 -173t33.5 -75t64.5 -17q41 0 65.5 22.5t24.5 67.5v40h-97v120h237v-360h-68
l-19 60h-2q-18 -30 -58.5 -50t-92.5 -20zM336 -40v-100l-29 -70h-45l22 70h-48v100h100z" />
    <glyph glyph-name="gcommaaccent" unicode="&#x123;" horiz-adv-x="484" 
d="M302 40v20h-2q-31 -50 -103 -50q-75 0 -120 67t-45 183q0 126 44 188t121 62q69 0 113 -50h2l10 40h110v-440q0 -133 -47 -191.5t-153 -58.5q-83 0 -132 30.5t-62 103.5l122 19q14 -53 67 -53q75 0 75 130zM237 400q-35 0 -55 -35.5t-20 -104.5t20 -104.5t55 -35.5
q27 0 46 21t19 64v150q-22 45 -65 45zM198 560v100l29 70h45l-22 -70h48v-100h-100z" />
    <glyph glyph-name="Imacron" unicode="&#x12a;" horiz-adv-x="244" 
d="M192 700v-700h-140v700h140zM262 850v-80h-280v80h280z" />
    <glyph glyph-name="imacron" unicode="&#x12b;" horiz-adv-x="234" 
d="M182 500v-500h-130v500h130zM257 660v-80h-280v80h280z" />
    <glyph glyph-name="Iogonek" unicode="&#x12e;" horiz-adv-x="244" 
d="M164 -158q34 0 68 25l26 -40q-42 -37 -97 -37q-56 0 -89.5 22t-33.5 63q0 67 104 125h-90v700h140v-700q-80 -58 -80 -115q0 -21 14 -32t38 -11z" />
    <glyph glyph-name="iogonek" unicode="&#x12f;" horiz-adv-x="234" 
d="M154 -158q34 0 68 25l26 -40q-42 -37 -97 -37q-56 0 -89.5 22t-33.5 63q0 67 104 125h-80v500h130v-500q-80 -58 -80 -115q0 -21 14 -32t38 -11zM182 690v-120h-130v120h130z" />
    <glyph glyph-name="Idotaccent" unicode="&#x130;" horiz-adv-x="244" 
d="M182 870v-120h-120v120h120zM192 700v-700h-140v700h140z" />
    <glyph glyph-name="dotlessi" unicode="&#x131;" horiz-adv-x="234" 
d="M182 500v-500h-130v500h130z" />
    <glyph glyph-name="Kcommaaccent" unicode="&#x136;" 
d="M192 700v-290h2l178 290h150l-180 -290l190 -410h-150l-126 284h-2l-62 -97v-187h-140v700h140zM322 -40v-100l-29 -70h-45l22 70h-48v100h100z" />
    <glyph glyph-name="kcommaaccent" unicode="&#x137;" horiz-adv-x="484" 
d="M182 700v-390h2l128 190h140l-133 -180l153 -320h-140l-91 213h-2l-57 -68v-145h-130v700h130zM302 -40v-100l-29 -70h-45l22 70h-48v100h100z" />
    <glyph glyph-name="Lacute" unicode="&#x139;" horiz-adv-x="424" 
d="M192 700v-580h220v-120h-360v700h140zM132 880h140l-120 -130h-100z" />
    <glyph glyph-name="lacute" unicode="&#x13a;" horiz-adv-x="234" 
d="M132 880h140l-120 -130h-100zM182 700v-700h-130v700h130z" />
    <glyph glyph-name="Lcommaaccent" unicode="&#x13b;" horiz-adv-x="424" 
d="M192 700v-580h220v-120h-360v700h140zM272 -40v-100l-29 -70h-45l22 70h-48v100h100z" />
    <glyph glyph-name="lcommaaccent" unicode="&#x13c;" horiz-adv-x="234" 
d="M167 -40v-100l-29 -70h-45l22 70h-48v100h100zM182 700v-700h-130v700h130z" />
    <glyph glyph-name="Lcaron" unicode="&#x13d;" horiz-adv-x="424" 
d="M192 700v-580h220v-120h-360v700h140zM342 710v-100l-29 -70h-45l22 70h-48v100h100z" />
    <glyph glyph-name="lcaron" unicode="&#x13e;" horiz-adv-x="314" 
d="M322 710v-100l-29 -70h-45l22 70h-48v100h100zM182 700v-700h-130v700h130z" />
    <glyph glyph-name="Lslash" unicode="&#x141;" horiz-adv-x="424" 
d="M-8 190v110l60 29v371h140v-304l100 48v-110l-100 -48v-166h220v-120h-360v219z" />
    <glyph glyph-name="lslash" unicode="&#x142;" horiz-adv-x="214" 
d="M-8 190v110l50 24v376h130v-314l50 24v-110l-50 -24v-276h-130v214z" />
    <glyph glyph-name="Nacute" unicode="&#x143;" horiz-adv-x="584" 
d="M532 700v-700h-126l-226 454h-2v-454h-126v700h136l216 -434h2v434h126zM312 880h140l-120 -130h-100z" />
    <glyph glyph-name="nacute" unicode="&#x144;" horiz-adv-x="504" 
d="M452 300v-300h-130v300q0 44 -16.5 72t-48.5 28q-40 0 -75 -35v-365h-130v500h110l10 -40h2q22 22 60.5 36t72.5 14q71 0 108 -58t37 -152zM252 690h140l-120 -130h-100z" />
    <glyph glyph-name="Ncommaaccent" unicode="&#x145;" horiz-adv-x="584" 
d="M532 700v-700h-126l-226 454h-2v-454h-126v700h136l216 -434h2v434h126zM332 -40v-100l-29 -70h-45l22 70h-48v100h100z" />
    <glyph glyph-name="ncommaaccent" unicode="&#x146;" horiz-adv-x="504" 
d="M452 300v-300h-130v300q0 44 -16.5 72t-48.5 28q-40 0 -75 -35v-365h-130v500h110l10 -40h2q22 22 60.5 36t72.5 14q71 0 108 -58t37 -152zM302 -40v-100l-29 -70h-45l22 70h-48v100h100z" />
    <glyph glyph-name="Ncaron" unicode="&#x147;" horiz-adv-x="584" 
d="M532 700v-700h-126l-226 454h-2v-454h-126v700h136l216 -434h2v434h126zM361 750h-130l-100 130h100l65 -70l65 70h100z" />
    <glyph glyph-name="ncaron" unicode="&#x148;" horiz-adv-x="504" 
d="M452 300v-300h-130v300q0 44 -16.5 72t-48.5 28q-40 0 -75 -35v-365h-130v500h110l10 -40h2q22 22 60.5 36t72.5 14q71 0 108 -58t37 -152zM302 560h-130l-100 130h100l65 -70l65 70h100z" />
    <glyph glyph-name="Omacron" unicode="&#x14c;" 
d="M412 850v-80h-280v80h280zM272 110q38 0 57.5 17t31 75t11.5 173q0 88 -11.5 135.5t-32 63.5t-56.5 16t-56.5 -16t-32 -63.5t-11.5 -135.5q0 -115 11.5 -173t31 -75t57.5 -17zM272 -10q-141 0 -190.5 88t-49.5 297q0 78 11 135.5t37 104.5t74 71t118 24t118 -24t74 -71
t37 -104.5t11 -135.5q0 -209 -49.5 -297t-190.5 -88z" />
    <glyph glyph-name="omacron" unicode="&#x14d;" horiz-adv-x="464" 
d="M372 660v-80h-280v80h280zM232 -10q-107 0 -153.5 59.5t-46.5 201.5q0 259 200 259t200 -259q0 -142 -46.5 -201.5t-153.5 -59.5zM232 410q-36 0 -53 -33.5t-17 -125.5q0 -93 17 -127t53 -34q37 0 53.5 33.5t16.5 127.5q0 92 -16.5 125.5t-53.5 33.5z" />
    <glyph glyph-name="Ohungarumlaut" unicode="&#x150;" 
d="M192 880h140l-120 -130h-100zM372 880h140l-120 -130h-100zM272 110q38 0 57.5 17t31 75t11.5 173q0 88 -11.5 135.5t-32 63.5t-56.5 16t-56.5 -16t-32 -63.5t-11.5 -135.5q0 -115 11.5 -173t31 -75t57.5 -17zM272 -10q-141 0 -190.5 88t-49.5 297q0 78 11 135.5
t37 104.5t74 71t118 24t118 -24t74 -71t37 -104.5t11 -135.5q0 -209 -49.5 -297t-190.5 -88z" />
    <glyph glyph-name="ohungarumlaut" unicode="&#x151;" horiz-adv-x="464" 
d="M152 690h140l-120 -130h-100zM332 690h140l-120 -130h-100zM232 -10q-107 0 -153.5 59.5t-46.5 201.5q0 259 200 259t200 -259q0 -142 -46.5 -201.5t-153.5 -59.5zM232 410q-36 0 -53 -33.5t-17 -125.5q0 -93 17 -127t53 -34q37 0 53.5 33.5t16.5 127.5q0 92 -16.5 125.5
t-53.5 33.5z" />
    <glyph glyph-name="OE" unicode="&#x152;" horiz-adv-x="774" 
d="M342 700h390v-120h-230v-160h170v-120h-170v-180h240v-120h-410q-158 0 -219 75t-61 275q0 189 63.5 269.5t226.5 80.5zM362 120v460h-20q-43 0 -66.5 -6t-45 -28.5t-30 -69.5t-8.5 -126q0 -78 8.5 -125.5t30 -70t45 -28.5t66.5 -6h20z" />
    <glyph glyph-name="oe" unicode="&#x153;" horiz-adv-x="744" 
d="M507 90q28 0 45 15t26 58l122 -19q-13 -84 -60 -119t-133 -35q-94 0 -139 41q-45 -41 -136 -41q-107 0 -153.5 59.5t-46.5 201.5q0 259 200 259q86 0 135 -47q50 47 140 47q107 0 156 -65t49 -194v-21h-280q0 -73 17 -106.5t58 -33.5zM232 410q-36 0 -53 -33.5
t-17 -125.5q0 -93 17 -127t53 -34q37 0 53.5 33.5t16.5 127.5q0 92 -16.5 125.5t-53.5 33.5zM507 410q-33 0 -49.5 -19.5t-22.5 -70.5h144q-10 90 -72 90z" />
    <glyph glyph-name="Racute" unicode="&#x154;" horiz-adv-x="554" 
d="M52 700h215q108 0 171.5 -55t63.5 -165q0 -146 -108 -197l138 -283h-150l-121 260h-69v-260h-140v700zM192 380h67q60 0 81.5 22.5t21.5 77.5q0 51 -22.5 75.5t-82.5 24.5h-65v-200zM272 880h140l-120 -130h-100z" />
    <glyph glyph-name="racute" unicode="&#x155;" horiz-adv-x="324" 
d="M312 510v-115q-22 5 -45 5q-37 0 -61 -25t-24 -80v-295h-130v500h110l10 -50h2q40 60 138 60zM172 690h140l-120 -130h-100z" />
    <glyph glyph-name="Rcommaaccent" unicode="&#x156;" horiz-adv-x="554" 
d="M52 700h215q108 0 171.5 -55t63.5 -165q0 -146 -108 -197l138 -283h-150l-121 260h-69v-260h-140v700zM192 380h67q60 0 81.5 22.5t21.5 77.5q0 51 -22.5 75.5t-82.5 24.5h-65v-200zM322 -40v-100l-29 -70h-45l22 70h-48v100h100z" />
    <glyph glyph-name="rcommaaccent" unicode="&#x157;" horiz-adv-x="324" 
d="M167 -40v-100l-29 -70h-45l22 70h-48v100h100zM312 510v-115q-22 5 -45 5q-37 0 -61 -25t-24 -80v-295h-130v500h110l10 -50h2q40 60 138 60z" />
    <glyph glyph-name="Rcaron" unicode="&#x158;" horiz-adv-x="554" 
d="M52 700h215q108 0 171.5 -55t63.5 -165q0 -146 -108 -197l138 -283h-150l-121 260h-69v-260h-140v700zM192 380h67q60 0 81.5 22.5t21.5 77.5q0 51 -22.5 75.5t-82.5 24.5h-65v-200zM323 750h-130l-100 130h100l65 -70l65 70h100z" />
    <glyph glyph-name="rcaron" unicode="&#x159;" horiz-adv-x="324" 
d="M322 510v-115q-22 5 -45 5q-37 0 -61 -25t-24 -80v-295h-130v500h110l10 -50h2q40 60 138 60zM257 560h-130l-100 130h100l65 -70l65 70h100z" />
    <glyph glyph-name="Sacute" unicode="&#x15a;" horiz-adv-x="504" 
d="M472 533l-120 -30q-14 51 -38 69t-66 18q-76 0 -76 -70q0 -27 32 -50t77.5 -44t91 -48.5t77.5 -75.5t32 -112q0 -96 -66 -148t-168 -52q-93 0 -155.5 47.5t-80.5 140.5l130 32q7 -45 35.5 -72.5t70.5 -27.5q44 0 69 20.5t25 59.5q0 22 -17 41t-44.5 34.5t-60.5 31t-66 36
t-60.5 45t-44.5 61t-17 81.5q0 91 57.5 140.5t158.5 49.5q90 0 144.5 -43.5t79.5 -133.5zM252 879h140l-120 -130h-100z" />
    <glyph glyph-name="sacute" unicode="&#x15b;" horiz-adv-x="424" 
d="M387 383l-112 -26q-24 53 -68 53q-20 0 -32.5 -9t-12.5 -25q0 -33 80 -66q32 -13 55.5 -26t50 -34t40.5 -50.5t14 -65.5q0 -69 -55 -106.5t-136 -37.5q-76 0 -129.5 34t-69.5 108l117 27q26 -69 85 -69q57 0 57 44q0 21 -15.5 33.5t-62.5 32.5l-43.5 20.5t-42 24.5
t-39 32.5t-25.5 41t-11 52.5q0 66 45.5 102.5t124.5 36.5q72 0 116.5 -29.5t68.5 -97.5zM209 690h140l-120 -130h-100z" />
    <glyph glyph-name="Scedilla" unicode="&#x15e;" horiz-adv-x="504" 
d="M145 -172l23 39q35 -29 71 -29q18 0 32.5 9.5t14.5 26.5q0 16 -14.5 25.5t-32.5 9.5q-20 0 -31 -8l-16 8l46 81q-89 2 -149 49.5t-77 138.5l130 32q7 -45 35.5 -72.5t70.5 -27.5q44 0 69 20.5t25 59.5q0 22 -17 41t-44.5 34.5t-60.5 31t-66 36t-60.5 45t-44.5 61
t-17 81.5q0 91 57.5 140.5t158.5 49.5q90 0 144.5 -43.5t79.5 -133.5l-120 -30q-14 51 -38 69t-66 18q-76 0 -76 -70q0 -27 32 -50t77.5 -44t91 -48.5t77.5 -75.5t32 -112q0 -88 -56.5 -139.5t-146.5 -58.5l-17 -34l1 -1q8 3 17 3q35 0 60 -24t25 -57q0 -37 -32 -63t-91 -26
q-61 0 -97 38z" />
    <glyph glyph-name="scedilla" unicode="&#x15f;" horiz-adv-x="424" 
d="M107 -172l23 39q35 -29 71 -29q18 0 32.5 9.5t14.5 26.5q0 16 -14.5 25.5t-32.5 9.5q-20 0 -31 -8l-16 8l46 81q-71 2 -121.5 36.5t-66.5 105.5l117 27q26 -69 85 -69q57 0 57 44q0 21 -15.5 33.5t-62.5 32.5l-43.5 20.5t-42 24.5t-39 32.5t-25.5 41t-11 52.5
q0 66 45.5 102.5t124.5 36.5q72 0 116.5 -29.5t68.5 -97.5l-112 -26q-24 53 -68 53q-20 0 -32.5 -9t-12.5 -25q0 -33 80 -66q32 -13 55.5 -26t50 -34t40.5 -50.5t14 -65.5q0 -62 -45.5 -99t-115.5 -43l-17 -34l1 -1q7 3 17 3q35 0 60 -24t25 -57q0 -37 -32 -63t-91 -26
q-61 0 -97 38z" />
    <glyph glyph-name="Scaron" unicode="&#x160;" horiz-adv-x="504" 
d="M472 533l-120 -30q-14 51 -38 69t-66 18q-76 0 -76 -70q0 -27 32 -50t77.5 -44t91 -48.5t77.5 -75.5t32 -112q0 -96 -66 -148t-168 -52q-93 0 -155.5 47.5t-80.5 140.5l130 32q7 -45 35.5 -72.5t70.5 -27.5q44 0 69 20.5t25 59.5q0 22 -17 41t-44.5 34.5t-60.5 31t-66 36
t-60.5 45t-44.5 61t-17 81.5q0 91 57.5 140.5t158.5 49.5q90 0 144.5 -43.5t79.5 -133.5zM312 750h-130l-100 130h100l65 -70l65 70h100z" />
    <glyph glyph-name="scaron" unicode="&#x161;" horiz-adv-x="424" 
d="M387 383l-112 -26q-24 53 -68 53q-20 0 -32.5 -9t-12.5 -25q0 -33 80 -66q32 -13 55.5 -26t50 -34t40.5 -50.5t14 -65.5q0 -69 -55 -106.5t-136 -37.5q-76 0 -129.5 34t-69.5 108l117 27q26 -69 85 -69q57 0 57 44q0 21 -15.5 33.5t-62.5 32.5l-43.5 20.5t-42 24.5
t-39 32.5t-25.5 41t-11 52.5q0 66 45.5 102.5t124.5 36.5q72 0 116.5 -29.5t68.5 -97.5zM272 560h-130l-100 130h100l65 -70l65 70h100z" />
    <glyph glyph-name="Tcommaaccent" unicode="&#x162;" horiz-adv-x="484" 
d="M12 700h460v-120h-160v-580h-140v580h-160v120zM292 -40v-100l-29 -70h-45l22 70h-48v100h100z" />
    <glyph glyph-name="tcommaaccent" unicode="&#x163;" horiz-adv-x="294" 
d="M12 400v100h50l14 148h116v-148h70v-100h-70v-230q0 -40 12.5 -55t47.5 -15h20v-100h-60q-90 0 -120 40t-30 130v230h-50zM223 -40v-100l-29 -70h-45l22 70h-48v100h100z" />
    <glyph glyph-name="Tcaron" unicode="&#x164;" horiz-adv-x="484" 
d="M307 750h-130l-100 130h100l65 -70l65 70h100zM12 700h460v-120h-160v-580h-140v580h-160v120z" />
    <glyph glyph-name="tcaron" unicode="&#x165;" horiz-adv-x="314" 
d="M2 400v100h50l14 148h116v-148h70v-100h-70v-230q0 -40 12.5 -55t47.5 -15h20v-100h-60q-90 0 -120 40t-30 130v230h-50zM322 710v-100l-29 -70h-45l22 70h-48v100h100z" />
    <glyph glyph-name="Umacron" unicode="&#x16a;" horiz-adv-x="584" 
d="M432 850v-80h-280v80h280zM192 700v-404q0 -107 24.5 -146.5t75.5 -39.5q48 0 74 38.5t26 137.5v414h140v-414q0 -138 -54 -217t-186 -79q-69 0 -117.5 22.5t-74.5 64.5t-37 94t-11 120v409h140z" />
    <glyph glyph-name="umacron" unicode="&#x16b;" horiz-adv-x="504" 
d="M392 660v-80h-280v80h280zM52 200v300h130v-300q0 -44 16.5 -72t48.5 -28q40 0 75 35v365h130v-500h-110l-10 40h-2q-22 -22 -60.5 -36t-72.5 -14q-71 0 -108 58t-37 152z" />
    <glyph glyph-name="Uring" unicode="&#x16e;" horiz-adv-x="584" 
d="M192 700v-404q0 -107 24.5 -146.5t75.5 -39.5q48 0 74 38.5t26 137.5v414h140v-414q0 -138 -54 -217t-186 -79q-69 0 -117.5 22.5t-74.5 64.5t-37 94t-11 120v409h140zM192 829q0 41 29.5 70t70.5 29t70.5 -29t29.5 -70t-29.5 -70t-70.5 -29t-70.5 29t-29.5 70zM253 829
q0 -16 11.5 -27t27.5 -11t27.5 11t11.5 27t-11.5 27t-27.5 11t-27.5 -11t-11.5 -27z" />
    <glyph glyph-name="uring" unicode="&#x16f;" horiz-adv-x="504" 
d="M52 200v300h130v-300q0 -44 16.5 -72t48.5 -28q40 0 75 35v365h130v-500h-110l-10 40h-2q-22 -22 -60.5 -36t-72.5 -14q-71 0 -108 58t-37 152zM152 661q0 41 29.5 70t70.5 29t70.5 -29t29.5 -70t-29.5 -70t-70.5 -29t-70.5 29t-29.5 70zM213 661q0 -16 11.5 -27
t27.5 -11t27.5 11t11.5 27t-11.5 27t-27.5 11t-27.5 -11t-11.5 -27z" />
    <glyph glyph-name="Uhungarumlaut" unicode="&#x170;" horiz-adv-x="584" 
d="M202 879h140l-120 -130h-100zM382 879h140l-120 -130h-100zM192 700v-404q0 -107 24.5 -146.5t75.5 -39.5q48 0 74 38.5t26 137.5v414h140v-414q0 -138 -54 -217t-186 -79q-69 0 -117.5 22.5t-74.5 64.5t-37 94t-11 120v409h140z" />
    <glyph glyph-name="uhungarumlaut" unicode="&#x171;" horiz-adv-x="504" 
d="M172 690h140l-120 -130h-100zM352 690h140l-120 -130h-100zM52 200v300h130v-300q0 -44 16.5 -72t48.5 -28q40 0 75 35v365h130v-500h-110l-10 40h-2q-22 -22 -60.5 -36t-72.5 -14q-71 0 -108 58t-37 152z" />
    <glyph glyph-name="Uogonek" unicode="&#x172;" horiz-adv-x="584" 
d="M313 -158q34 0 68 25l26 -40q-42 -37 -97 -37q-56 0 -89.5 22t-33.5 63q0 63 87 116q-123 6 -172.5 84.5t-49.5 215.5v409h140v-404q0 -107 24.5 -146.5t75.5 -39.5q48 0 74 38.5t26 137.5v414h140v-414q0 -274 -202 -294q-69 -54 -69 -107q0 -21 14 -32t38 -11z" />
    <glyph glyph-name="uogonek" unicode="&#x173;" horiz-adv-x="504" 
d="M424 -158q34 0 68 25l26 -40q-42 -37 -97 -37q-56 0 -89.5 22t-33.5 63q0 67 104 125h-60l-10 40h-2q-22 -22 -60.5 -36t-72.5 -14q-71 0 -108 58t-37 152v300h130v-300q0 -44 16.5 -72t48.5 -28q40 0 75 35v365h130v-500q-80 -58 -80 -115q0 -21 14 -32t38 -11z" />
    <glyph glyph-name="Ydieresis" unicode="&#x178;" horiz-adv-x="554" 
d="M278 420l114 280h150l-190 -440v-260h-140v260l-200 440h150l114 -280h2zM252 870v-120h-120v120h120zM422 870v-120h-120v120h120z" />
    <glyph glyph-name="Zacute" unicode="&#x179;" horiz-adv-x="504" 
d="M52 700h410v-106l-280 -474h290v-120h-440v106l280 474h-260v120zM272 879h140l-120 -130h-100z" />
    <glyph glyph-name="zacute" unicode="&#x17a;" horiz-adv-x="454" 
d="M62 500h340v-86l-220 -314h230v-100h-370v86l220 314h-200v100zM263 690h140l-120 -130h-100z" />
    <glyph glyph-name="Zdotaccent" unicode="&#x17b;" horiz-adv-x="504" 
d="M52 700h410v-106l-280 -474h290v-120h-440v106l280 474h-260v120zM312 870v-120h-120v120h120z" />
    <glyph glyph-name="zdotaccent" unicode="&#x17c;" horiz-adv-x="454" 
d="M62 500h340v-86l-220 -314h230v-100h-370v86l220 314h-200v100zM302 680v-120h-120v120h120z" />
    <glyph glyph-name="Zcaron" unicode="&#x17d;" horiz-adv-x="504" 
d="M52 700h410v-106l-280 -474h290v-120h-440v106l280 474h-260v120zM317 750h-130l-100 130h100l65 -70l65 70h100z" />
    <glyph glyph-name="zcaron" unicode="&#x17e;" horiz-adv-x="454" 
d="M62 500h340v-86l-220 -314h230v-100h-370v86l220 314h-200v100zM292 560h-130l-100 130h100l65 -70l65 70h100z" />
    <glyph glyph-name="uni018F" unicode="&#x18f;" horiz-adv-x="564" 
d="M282 590q-45 0 -64 -23t-31 -85l-145 26q25 113 80 157.5t160 44.5q137 0 193.5 -84t56.5 -278q0 -182 -57 -270t-193 -88q-134 0 -192 88.5t-58 269.5v22h350q0 124 -20.5 172t-79.5 48zM282 110q50 0 69 30.5t28 118.5h-194q8 -86 28.5 -117.5t68.5 -31.5z" />
    <glyph glyph-name="uni01DD" unicode="&#x1dd;" horiz-adv-x="474" 
d="M253 410q-28 0 -45 -15t-26 -58l-122 19q13 84 60 119t133 35q110 0 157.5 -59.5t47.5 -201.5q0 -130 -48.5 -194.5t-156.5 -64.5q-107 0 -156 65t-49 194v21h280q0 73 -17 106.5t-58 33.5zM253 90q33 0 49.5 19.5t22.5 70.5h-144q10 -90 72 -90z" />
    <glyph glyph-name="Scommaaccent" unicode="&#x218;" horiz-adv-x="504" 
d="M472 533l-120 -30q-14 51 -38 69t-66 18q-76 0 -76 -70q0 -27 32 -50t77.5 -44t91 -48.5t77.5 -75.5t32 -112q0 -96 -66 -148t-168 -52q-93 0 -155.5 47.5t-80.5 140.5l130 32q7 -45 35.5 -72.5t70.5 -27.5q44 0 69 20.5t25 59.5q0 22 -17 41t-44.5 34.5t-60.5 31t-66 36
t-60.5 45t-44.5 61t-17 81.5q0 91 57.5 140.5t158.5 49.5q90 0 144.5 -43.5t79.5 -133.5zM302 -40v-100l-29 -70h-45l22 70h-48v100h100z" />
    <glyph glyph-name="scommaaccent" unicode="&#x219;" horiz-adv-x="424" 
d="M387 383l-112 -26q-24 53 -68 53q-20 0 -32.5 -9t-12.5 -25q0 -33 80 -66q32 -13 55.5 -26t50 -34t40.5 -50.5t14 -65.5q0 -69 -55 -106.5t-136 -37.5q-76 0 -129.5 34t-69.5 108l117 27q26 -69 85 -69q57 0 57 44q0 21 -15.5 33.5t-62.5 32.5l-43.5 20.5t-42 24.5
t-39 32.5t-25.5 41t-11 52.5q0 66 45.5 102.5t124.5 36.5q72 0 116.5 -29.5t68.5 -97.5zM253 -40v-100l-29 -70h-45l22 70h-48v100h100z" />
    <glyph glyph-name="uni021A" unicode="&#x21a;" horiz-adv-x="484" 
d="M12 700h460v-120h-160v-580h-140v580h-160v120zM292 -40v-100l-29 -70h-45l22 70h-48v100h100z" />
    <glyph glyph-name="uni021B" unicode="&#x21b;" horiz-adv-x="294" 
d="M12 400v100h50l14 148h116v-148h70v-100h-70v-230q0 -40 12.5 -55t47.5 -15h20v-100h-60q-90 0 -120 40t-30 130v230h-50zM223 -40v-100l-29 -70h-45l22 70h-48v100h100z" />
    <glyph glyph-name="circumflex" unicode="&#x2c6;" horiz-adv-x="434" 
d="M152 690h130l100 -130h-100l-65 70l-65 -70h-100z" />
    <glyph glyph-name="caron" unicode="&#x2c7;" horiz-adv-x="434" 
d="M282 560h-130l-100 130h100l65 -70l65 70h100z" />
    <glyph glyph-name="breve" unicode="&#x2d8;" horiz-adv-x="394" 
d="M262 680h80q-19 -130 -145 -130q-119 0 -145 130h80q11 -60 65 -60t65 60z" />
    <glyph glyph-name="dotaccent" unicode="&#x2d9;" horiz-adv-x="224" 
d="M172 680v-120h-120v120h120z" />
    <glyph glyph-name="ring" unicode="&#x2da;" horiz-adv-x="304" 
d="M52 641q0 41 29.5 70t70.5 29t70.5 -29t29.5 -70t-29.5 -70t-70.5 -29t-70.5 29t-29.5 70zM113 641q0 -16 11.5 -27t27.5 -11t27.5 11t11.5 27t-11.5 27t-27.5 11t-27.5 -11t-11.5 -27z" />
    <glyph glyph-name="ogonek" unicode="&#x2db;" horiz-adv-x="324" 
d="M178 -158q34 0 68 25l26 -40q-42 -37 -97 -37q-56 0 -89.5 22t-33.5 63q0 67 104 125h50q-80 -58 -80 -115q0 -21 14 -32t38 -11z" />
    <glyph glyph-name="tilde" unicode="&#x2dc;" horiz-adv-x="414" 
d="M287 680h75q-9 -53 -30 -81.5t-64 -28.5q-24 0 -57 15t-51 15q-16 0 -23.5 -6.5t-11.5 -23.5h-73q14 110 98 110q24 0 60.5 -15t47.5 -15q15 0 20.5 6t8.5 24z" />
    <glyph glyph-name="hungarumlaut" unicode="&#x2dd;" horiz-adv-x="504" 
d="M132 690h140l-120 -130h-100zM312 690h140l-120 -130h-100z" />
    <glyph glyph-name="tonos" unicode="&#x384;" horiz-adv-x="226" 
d="M104 717l80 -30l-80 -190l-62 23z" />
    <glyph glyph-name="Alphatonos" unicode="&#x386;" horiz-adv-x="574" 
d="M79 717l80 -30l-80 -190l-62 23zM189 150l-37 -150h-140l189 700h172l189 -700h-140l-37 150h-196zM219 270h136l-67 273h-2z" />
    <glyph glyph-name="Epsilontonos" unicode="&#x388;" horiz-adv-x="554" 
d="M39 717l80 -30l-80 -190l-62 23zM142 700h370v-120h-230v-160h170v-120h-170v-180h240v-120h-380v700z" />
    <glyph glyph-name="Etatonos" unicode="&#x389;" horiz-adv-x="674" 
d="M39 717l80 -30l-80 -190l-62 23zM282 300v-300h-140v700h140v-280h200v280h140v-700h-140v300h-200z" />
    <glyph glyph-name="Iotatonos" unicode="&#x38a;" horiz-adv-x="334" 
d="M39 717l80 -30l-80 -190l-62 23zM282 700v-700h-140v700h140z" />
    <glyph glyph-name="Omicrontonos" unicode="&#x38c;" horiz-adv-x="594" 
d="M39 717l80 -30l-80 -190l-62 23zM322 110q38 0 57.5 17t31 75t11.5 173q0 88 -11.5 135.5t-32 63.5t-56.5 16t-56.5 -16t-32 -63.5t-11.5 -135.5q0 -115 11.5 -173t31 -75t57.5 -17zM322 -10q-141 0 -190.5 88t-49.5 297q0 78 11 135.5t37 104.5t74 71t118 24t118 -24
t74 -71t37 -104.5t11 -135.5q0 -209 -49.5 -297t-190.5 -88z" />
    <glyph glyph-name="Upsilontonos" unicode="&#x38e;" horiz-adv-x="664" 
d="M39 717l80 -30l-80 -190l-62 23zM388 420l114 280h150l-190 -440v-260h-140v260l-200 440h150l114 -280h2z" />
    <glyph glyph-name="Omegatonos" unicode="&#x38f;" horiz-adv-x="584" 
d="M142 120v2q-60 92 -60 253q0 78 11 135.5t37 104.5t74 71t118 24t118 -24t74 -71t37 -104.5t11 -135.5q0 -161 -60 -253v-2h70v-120h-210v140q32 16 46 70t14 165q0 88 -11.5 135.5t-32 63.5t-56.5 16t-56.5 -16t-32 -63.5t-11.5 -135.5q0 -207 60 -235v-140h-210v120h70
zM39 717l80 -30l-80 -190l-62 23z" />
    <glyph glyph-name="iotadieresistonos" unicode="&#x390;" horiz-adv-x="234" 
d="M38 660v-86h-76v86h76zM268 660v-86h-76v86h76zM114 753l80 -30l-80 -190l-62 23zM182 500v-500h-130v500h130z" />
    <glyph glyph-name="Alpha" unicode="&#x391;" horiz-adv-x="574" 
d="M189 150l-37 -150h-140l189 700h172l189 -700h-140l-37 150h-196zM219 270h136l-67 273h-2z" />
    <glyph glyph-name="Beta" unicode="&#x392;" horiz-adv-x="524" 
d="M387 371v-2q105 -42 105 -178q0 -89 -65 -140t-170 -51h-205v700h185q104 0 169.5 -43t65.5 -137q0 -61 -20 -94t-65 -55zM192 300v-180h55q105 0 105 91q0 48 -29 68.5t-86 20.5h-45zM192 580v-160h45q46 0 70.5 21.5t24.5 58.5q0 80 -95 80h-45z" />
    <glyph glyph-name="Gamma" unicode="&#x393;" horiz-adv-x="424" 
d="M192 580v-580h-140v700h360v-120h-220z" />
    <glyph glyph-name="Epsilon" unicode="&#x395;" horiz-adv-x="464" 
d="M52 700h370v-120h-230v-160h170v-120h-170v-180h240v-120h-380v700z" />
    <glyph glyph-name="Zeta" unicode="&#x396;" horiz-adv-x="504" 
d="M52 700h410v-106l-280 -474h290v-120h-440v106l280 474h-260v120z" />
    <glyph glyph-name="Eta" unicode="&#x397;" horiz-adv-x="584" 
d="M192 300v-300h-140v700h140v-280h200v280h140v-700h-140v300h-200z" />
    <glyph glyph-name="Theta" unicode="&#x398;" 
d="M202 310v100h140v-100h-140zM272 110q38 0 57.5 17t31 75t11.5 173q0 88 -11.5 135.5t-32 63.5t-56.5 16t-56.5 -16t-32 -63.5t-11.5 -135.5q0 -115 11.5 -173t31 -75t57.5 -17zM272 -10q-141 0 -190.5 88t-49.5 297q0 78 11 135.5t37 104.5t74 71t118 24t118 -24t74 -71
t37 -104.5t11 -135.5q0 -209 -49.5 -297t-190.5 -88z" />
    <glyph glyph-name="Iota" unicode="&#x399;" horiz-adv-x="244" 
d="M192 700v-700h-140v700h140z" />
    <glyph glyph-name="Kappa" unicode="&#x39a;" 
d="M192 700v-290h2l178 290h150l-180 -290l190 -410h-150l-126 284h-2l-62 -97v-187h-140v700h140z" />
    <glyph glyph-name="Lambda" unicode="&#x39b;" horiz-adv-x="574" 
d="M422 0l-134 543h-2l-134 -543h-140l189 700h172l189 -700h-140z" />
    <glyph glyph-name="Mu" unicode="&#x39c;" horiz-adv-x="724" 
d="M672 700v-700h-121v500h-2l-142 -500h-85l-147 500h-2v-500h-121v700h183l128 -439h2l126 439h181z" />
    <glyph glyph-name="Nu" unicode="&#x39d;" horiz-adv-x="584" 
d="M532 700v-700h-126l-226 454h-2v-454h-126v700h136l216 -434h2v434h126z" />
    <glyph glyph-name="Xi" unicode="&#x39e;" horiz-adv-x="454" 
d="M32 120h390v-120h-390v120zM72 300v120h300v-120h-300zM32 580v120h380v-120h-380z" />
    <glyph glyph-name="Omicron" unicode="&#x39f;" 
d="M272 110q38 0 57.5 17t31 75t11.5 173q0 88 -11.5 135.5t-32 63.5t-56.5 16t-56.5 -16t-32 -63.5t-11.5 -135.5q0 -115 11.5 -173t31 -75t57.5 -17zM272 -10q-141 0 -190.5 88t-49.5 297q0 78 11 135.5t37 104.5t74 71t118 24t118 -24t74 -71t37 -104.5t11 -135.5
q0 -209 -49.5 -297t-190.5 -88z" />
    <glyph glyph-name="Pi" unicode="&#x3a0;" horiz-adv-x="594" 
d="M192 580v-580h-140v700h490v-700h-140v580h-210z" />
    <glyph glyph-name="Rho" unicode="&#x3a1;" horiz-adv-x="534" 
d="M52 700h215q108 0 171.5 -55t63.5 -165q0 -106 -58.5 -163t-168.5 -57h-83v-260h-140v700zM192 380h67q60 0 81.5 22.5t21.5 77.5q0 51 -22.5 75.5t-82.5 24.5h-65v-200z" />
    <glyph glyph-name="Sigma" unicode="&#x3a3;" horiz-adv-x="504" 
d="M52 700h410v-120h-260v-2l150 -211l-150 -245v-2h270v-120h-420v120l150 247l-150 212v121z" />
    <glyph glyph-name="Tau" unicode="&#x3a4;" horiz-adv-x="484" 
d="M12 700h460v-120h-160v-580h-140v580h-160v120z" />
    <glyph glyph-name="Upsilon" unicode="&#x3a5;" horiz-adv-x="554" 
d="M278 420l114 280h150l-190 -440v-260h-140v260l-200 440h150l114 -280h2z" />
    <glyph glyph-name="Phi" unicode="&#x3a6;" horiz-adv-x="714" 
d="M432 700v-103q133 -11 201.5 -76.5t68.5 -170.5q0 -107 -67.5 -171t-202.5 -76v-103h-140v102q-140 10 -210 75t-70 173q0 106 71 172t209 76v102h140zM142 350q0 -51 33 -81.5t117 -36.5v235q-84 -5 -117 -35.5t-33 -81.5zM572 350q0 105 -140 116v-233q140 8 140 117z
" />
    <glyph glyph-name="Chi" unicode="&#x3a7;" horiz-adv-x="574" 
d="M542 700l-175 -333l195 -367h-150l-121 245h-2l-127 -245h-150l197 364l-177 336h150l105 -217h2l103 217h150z" />
    <glyph glyph-name="Psi" unicode="&#x3a8;" horiz-adv-x="664" 
d="M172 700v-189q0 -73 23 -113t67 -62v364h140v-364q90 43 90 175v189h140v-189q0 -134 -60 -214.5t-170 -100.5v-196h-140v196q-111 20 -170.5 100.5t-59.5 214.5v189h140z" />
    <glyph glyph-name="Iotadieresis" unicode="&#x3aa;" horiz-adv-x="244" 
d="M200 700v-700h-140v700h140zM97 856v-120h-120v120h120zM267 856v-120h-120v120h120z" />
    <glyph glyph-name="Upsilondieresis" unicode="&#x3ab;" horiz-adv-x="554" 
d="M278 420l114 280h150l-190 -440v-260h-140v260l-200 440h150l114 -280h2zM251 856v-120h-120v120h120zM421 856v-120h-120v120h120z" />
    <glyph glyph-name="alphatonos" unicode="&#x3ac;" horiz-adv-x="534" 
d="M289 753l80 -30l-80 -190l-62 23zM502 0h-136q-15 19 -23 49h-2q-12 -27 -42.5 -43t-66.5 -16q-107 0 -153.5 59.5t-46.5 201.5q0 259 200 259q35 0 64.5 -18t41.5 -44h2q7 25 22 52h140q-69 -115 -69 -249q0 -146 69 -251zM232 410q-36 0 -53 -33.5t-17 -125.5
q0 -93 17 -127t53 -34q37 0 53.5 33.5t16.5 127.5q0 92 -16.5 125.5t-53.5 33.5z" />
    <glyph glyph-name="epsilontonos" unicode="&#x3ad;" horiz-adv-x="444" 
d="M366 137l46 -109q-82 -38 -176 -38q-204 0 -204 161q0 77 51 114v2q-32 35 -32 90q0 60 42.5 106.5t136.5 46.5q71 0 146 -32l-30 -111q-57 26 -106 26q-67 0 -67 -39q0 -45 74 -45h60v-100h-60q-92 0 -92 -52q0 -50 91 -50q60 0 120 30zM247 752l80 -30l-80 -190l-62 23
z" />
    <glyph glyph-name="etatonos" unicode="&#x3ae;" horiz-adv-x="504" 
d="M269 753l80 -30l-80 -190l-62 23zM452 300v-480h-130v480q0 44 -16.5 72t-48.5 28q-40 0 -75 -35v-365h-130v500h110l10 -40h2q22 22 60.5 36t72.5 14q71 0 108 -58t37 -152z" />
    <glyph glyph-name="iotatonos" unicode="&#x3af;" horiz-adv-x="234" 
d="M134 753l80 -30l-80 -190l-62 23zM182 500v-500h-130v500h130z" />
    <glyph glyph-name="upsilondieresistonos" unicode="&#x3b0;" horiz-adv-x="524" 
d="M188 660v-86h-76v86h76zM418 660v-86h-76v86h76zM269 753l80 -30l-80 -190l-62 23zM182 500v-242q0 -95 17 -131.5t63 -36.5q43 0 61.5 37.5t18.5 130.5v242h130v-242q0 -149 -43 -208.5t-167 -59.5q-121 0 -165.5 60t-44.5 208v242h130z" />
    <glyph glyph-name="alpha" unicode="&#x3b1;" horiz-adv-x="534" 
d="M502 0h-136q-15 19 -23 49h-2q-12 -27 -42.5 -43t-66.5 -16q-107 0 -153.5 59.5t-46.5 201.5q0 259 200 259q35 0 64.5 -18t41.5 -44h2q7 25 22 52h140q-69 -115 -69 -249q0 -146 69 -251zM232 410q-36 0 -53 -33.5t-17 -125.5q0 -93 17 -127t53 -34q37 0 53.5 33.5
t16.5 127.5q0 92 -16.5 125.5t-53.5 33.5z" />
    <glyph glyph-name="beta" unicode="&#x3b2;" horiz-adv-x="514" 
d="M252 -10q-39 0 -70 17v-187h-130v690q0 98 51.5 149t138.5 51q86 0 143 -52t57 -148q0 -61 -13.5 -96t-46.5 -53v-2q55 -24 77.5 -61t22.5 -93q0 -215 -230 -215zM182 510v-372q26 -28 70 -28q39 0 62 24.5t23 70.5q0 47 -23 71t-62 24h-20v120h10q29 0 44.5 24.5
t15.5 65.5q0 37 -15.5 58.5t-44.5 21.5q-27 0 -43.5 -22t-16.5 -58z" />
    <glyph glyph-name="gamma" unicode="&#x3b3;" horiz-adv-x="484" 
d="M462 500l-155 -460v-220h-130v220l-155 460h130l89 -302h2l89 302h130z" />
    <glyph glyph-name="delta" unicode="&#x3b4;" horiz-adv-x="464" 
d="M232 -10q-106 0 -153 59t-47 192q0 169 100 211v2q-54 54 -54 108q0 69 46 103.5t124 34.5h106v-100h-103q-49 0 -49 -38q0 -23 25.5 -41.5t64 -37t54.5 -33.5q86 -77 86 -209q0 -134 -47 -192.5t-153 -58.5zM232 390q-37 0 -53.5 -29t-16.5 -120q0 -92 16.5 -121.5
t53.5 -29.5q38 0 54 29.5t16 121.5q0 91 -16 120t-54 29z" />
    <glyph glyph-name="epsilon" unicode="&#x3b5;" horiz-adv-x="424" 
d="M366 137l46 -109q-82 -38 -176 -38q-204 0 -204 161q0 77 51 114v2q-32 35 -32 90q0 60 42.5 106.5t136.5 46.5q71 0 146 -32l-30 -111q-57 26 -106 26q-67 0 -67 -39q0 -45 74 -45h60v-100h-60q-92 0 -92 -52q0 -50 91 -50q60 0 120 30z" />
    <glyph glyph-name="zeta" unicode="&#x3b6;" horiz-adv-x="404" 
d="M32 251q0 104 54 197.5t132 149.5v2h-166v100h360v-86q-53 -40 -84.5 -66t-67 -62.5t-54.5 -69t-31.5 -75t-12.5 -90.5q0 -87 119 -135q65 -26 86 -60.5t21 -88.5q0 -49 -33.5 -86t-95.5 -71l-74 87q44 25 61 39t17 31t-12 26t-44 19q-175 58 -175 239z" />
    <glyph glyph-name="eta" unicode="&#x3b7;" horiz-adv-x="504" 
d="M452 300v-480h-130v480q0 44 -16.5 72t-48.5 28q-40 0 -75 -35v-365h-130v500h110l10 -40h2q22 22 60.5 36t72.5 14q71 0 108 -58t37 -152z" />
    <glyph glyph-name="theta" unicode="&#x3b8;" 
d="M272 -10q-127 0 -183.5 92.5t-56.5 292.5q0 154 59.5 244.5t180.5 90.5t180.5 -90.5t59.5 -244.5q0 -200 -57.5 -292.5t-182.5 -92.5zM272 90q100 0 109 218h-218q5 -109 29.5 -163.5t79.5 -54.5zM272 610q-56 0 -80 -50t-30 -152h219q-5 100 -30 151t-79 51z" />
    <glyph glyph-name="iota" unicode="&#x3b9;" horiz-adv-x="234" 
d="M182 500v-500h-130v500h130z" />
    <glyph glyph-name="kappa" unicode="&#x3ba;" horiz-adv-x="484" 
d="M182 500v-190h2l128 190h140l-133 -180l153 -320h-140l-91 213h-2l-57 -68v-145h-130v500h130z" />
    <glyph glyph-name="lambda" unicode="&#x3bb;" horiz-adv-x="484" 
d="M252 700l210 -700h-130l-89 342h-2l-89 -342h-130l150 500l-59 200h139z" />
    <glyph glyph-name="nu" unicode="&#x3bd;" horiz-adv-x="484" 
d="M462 500l-150 -500h-140l-150 500h130l89 -342h2l89 342h130z" />
    <glyph glyph-name="xi" unicode="&#x3be;" horiz-adv-x="384" 
d="M162 251q0 -87 119 -135q65 -26 86 -60.5t21 -88.5q0 -49 -33.5 -86t-95.5 -71l-74 87q44 25 61 39t17 31t-12 26t-44 19q-175 58 -175 239q0 79 77 138v2q-47 36 -47 109q0 66 48 100h-58v100h340v-100h-134q-36 0 -56 -23.5t-20 -56.5q0 -34 21 -59t59 -25h76v-100h-76
q-100 0 -100 -85z" />
    <glyph glyph-name="omicron" unicode="&#x3bf;" horiz-adv-x="464" 
d="M232 -10q-107 0 -153.5 59.5t-46.5 201.5q0 259 200 259t200 -259q0 -142 -46.5 -201.5t-153.5 -59.5zM232 410q-36 0 -53 -33.5t-17 -125.5q0 -93 17 -127t53 -34q37 0 53.5 33.5t16.5 127.5q0 92 -16.5 125.5t-53.5 33.5z" />
    <glyph glyph-name="pi" unicode="&#x3c0;" horiz-adv-x="574" 
d="M562 500v-100h-80v-400h-130v400h-130v-400h-130v400h-80v100h550z" />
    <glyph glyph-name="rho" unicode="&#x3c1;" horiz-adv-x="484" 
d="M52 -180v440q0 133 49.5 191.5t145.5 58.5q100 0 152.5 -60.5t52.5 -199.5q0 -125 -44.5 -192.5t-120.5 -67.5q-72 0 -103 50h-2v-220h-130zM247 400q-65 0 -65 -95v-110q0 -50 19 -72.5t46 -22.5q38 0 56.5 30.5t18.5 119.5q0 150 -75 150z" />
    <glyph glyph-name="uni03C2" unicode="&#x3c2;" horiz-adv-x="460" 
d="M162 251q0 -87 119 -135q65 -26 86 -60.5t21 -88.5q0 -49 -33.5 -86t-95.5 -71l-74 87q44 25 61 39t17 31t-12 26t-44 19q-175 58 -175 239q0 259 200 259q175 0 196 -145l-121 -19q-12 64 -75 64q-36 0 -53 -33.5t-17 -125.5z" />
    <glyph glyph-name="sigma" unicode="&#x3c3;" horiz-adv-x="464" 
d="M352 500h110v-100h-53v-2q23 -57 23 -147q0 -142 -46.5 -201.5t-153.5 -59.5t-153.5 59.5t-46.5 201.5q0 259 200 259q14 0 61 -5t59 -5zM232 410q-36 0 -53 -33.5t-17 -125.5q0 -93 17 -127t53 -34q37 0 53.5 33.5t16.5 127.5q0 92 -16.5 125.5t-53.5 33.5z" />
    <glyph glyph-name="tau" unicode="&#x3c4;" horiz-adv-x="394" 
d="M12 500h370v-100h-120v-400h-130v400h-120v100z" />
    <glyph glyph-name="upsilon" unicode="&#x3c5;" horiz-adv-x="524" 
d="M182 500v-242q0 -95 17 -131.5t63 -36.5q43 0 61.5 37.5t18.5 130.5v242h130v-242q0 -149 -43 -208.5t-167 -59.5q-121 0 -165.5 60t-44.5 208v242h130z" />
    <glyph glyph-name="phi" unicode="&#x3c6;" horiz-adv-x="564" 
d="M217 115v395h65q109 0 179.5 -68.5t70.5 -190.5q0 -114 -50.5 -177t-134.5 -78v-176h-130v176q-85 15 -135 78t-50 177q0 105 71 185l89 -84q-40 -42 -40 -101q0 -109 65 -136zM412 251q0 49 -19.5 84.5t-45.5 50.5v-272q29 12 47 48t18 89z" />
    <glyph glyph-name="chi" unicode="&#x3c7;" horiz-adv-x="504" 
d="M462 500l-128 -333l148 -347h-138l-88 230h-2l-94 -230h-138l150 344l-130 336h138l72 -222h2l70 222h138z" />
    <glyph glyph-name="psi" unicode="&#x3c8;" horiz-adv-x="634" 
d="M162 500v-184q0 -135 90 -180v364h130v-364q90 43 90 180v184h130v-184q0 -271 -220 -310v-186h-130v186q-220 39 -220 310v184h130z" />
    <glyph glyph-name="omega" unicode="&#x3c9;" horiz-adv-x="694" 
d="M440 500h141q35 -43 58 -113t23 -139q0 -126 -60 -192t-141 -66q-68 0 -113 46h-2q-43 -46 -117 -46q-76 0 -136.5 66.5t-60.5 191.5q0 73 22 141.5t61 110.5h143q-50 -55 -73 -123t-23 -129q0 -71 24.5 -105.5t53.5 -34.5q18 0 30 18.5t12 47.5v198h130v-198
q0 -29 13 -47.5t32 -18.5q31 0 53 34.5t22 105.5q0 61 -22.5 128.5t-69.5 123.5z" />
    <glyph glyph-name="iotadieresis" unicode="&#x3ca;" horiz-adv-x="234" 
d="M182 500v-500h-130v500h130zM92 680v-120h-120v120h120zM262 680v-120h-120v120h120z" />
    <glyph glyph-name="upsilondieresis" unicode="&#x3cb;" horiz-adv-x="524" 
d="M237 680v-120h-120v120h120zM407 680v-120h-120v120h120zM182 500v-242q0 -95 17 -131.5t63 -36.5q43 0 61.5 37.5t18.5 130.5v242h130v-242q0 -149 -43 -208.5t-167 -59.5q-121 0 -165.5 60t-44.5 208v242h130z" />
    <glyph glyph-name="omicrontonos" unicode="&#x3cc;" horiz-adv-x="464" 
d="M249 753l80 -30l-80 -190l-62 23zM232 -10q-107 0 -153.5 59.5t-46.5 201.5q0 259 200 259t200 -259q0 -142 -46.5 -201.5t-153.5 -59.5zM232 410q-36 0 -53 -33.5t-17 -125.5q0 -93 17 -127t53 -34q37 0 53.5 33.5t16.5 127.5q0 92 -16.5 125.5t-53.5 33.5z" />
    <glyph glyph-name="upsilontonos" unicode="&#x3cd;" horiz-adv-x="524" 
d="M279 753l80 -30l-80 -190l-62 23zM182 500v-242q0 -95 17 -131.5t63 -36.5q43 0 61.5 37.5t18.5 130.5v242h130v-242q0 -149 -43 -208.5t-167 -59.5q-121 0 -165.5 60t-44.5 208v242h130z" />
    <glyph glyph-name="omegatonos" unicode="&#x3ce;" horiz-adv-x="694" 
d="M440 500h141q35 -43 58 -113t23 -139q0 -126 -60 -192t-141 -66q-68 0 -113 46h-2q-43 -46 -117 -46q-76 0 -136.5 66.5t-60.5 191.5q0 73 22 141.5t61 110.5h143q-50 -55 -73 -123t-23 -129q0 -71 24.5 -105.5t53.5 -34.5q18 0 30 18.5t12 47.5v198h130v-198
q0 -29 13 -47.5t32 -18.5q31 0 53 34.5t22 105.5q0 61 -22.5 128.5t-69.5 123.5zM362 753l80 -30l-80 -190l-62 23z" />
    <glyph glyph-name="uni0400" unicode="&#x400;" horiz-adv-x="464" 
d="M52 700h370v-120h-230v-160h170v-120h-170v-180h240v-120h-380v700zM82 880h140l80 -130h-100z" />
    <glyph glyph-name="afii10023" unicode="&#x401;" horiz-adv-x="464" 
d="M52 700h370v-120h-230v-160h170v-120h-170v-180h240v-120h-380v700zM207 870v-120h-120v120h120zM377 870v-120h-120v120h120z" />
    <glyph glyph-name="uni0402" unicode="&#x402;" horiz-adv-x="664" 
d="M512 260q0 55 -28.5 87.5t-71.5 32.5q-41 0 -70.5 -32.5t-29.5 -87.5v-260h-140v580h-160v120h460v-120h-160v-130h2q50 50 123 50q104 0 159.5 -63t55.5 -177q0 -309 -199 -450l-91 93q80 57 115 139t35 218z" />
    <glyph glyph-name="uni0403" unicode="&#x403;" horiz-adv-x="424" 
d="M243 880h140l-120 -130h-100zM192 580v-580h-140v700h360v-120h-220z" />
    <glyph glyph-name="uni0404" unicode="&#x404;" 
d="M272 -10q-141 0 -190.5 86.5t-49.5 298.5q0 78 11 135.5t37 104.5t74 71t118 24q200 0 235 -205l-131 -20q-10 63 -35.5 84t-68.5 21q-50 0 -72.5 -34.5t-26.5 -135.5h169v-120h-169q3 -81 16 -123t31 -54.5t52 -12.5q51 0 75.5 29.5t33.5 105.5l131 -20
q-18 -122 -69 -178.5t-171 -56.5z" />
    <glyph glyph-name="uni0405" unicode="&#x405;" horiz-adv-x="504" 
d="M472 533l-120 -30q-14 51 -38 69t-66 18q-76 0 -76 -70q0 -27 32 -50t77.5 -44t91 -48.5t77.5 -75.5t32 -112q0 -96 -66 -148t-168 -52q-93 0 -155.5 47.5t-80.5 140.5l130 32q7 -45 35.5 -72.5t70.5 -27.5q44 0 69 20.5t25 59.5q0 22 -17 41t-44.5 34.5t-60.5 31t-66 36
t-60.5 45t-44.5 61t-17 81.5q0 91 57.5 140.5t158.5 49.5q90 0 144.5 -43.5t79.5 -133.5z" />
    <glyph glyph-name="uni0406" unicode="&#x406;" horiz-adv-x="244" 
d="M192 700v-700h-140v700h140z" />
    <glyph glyph-name="uni0407" unicode="&#x407;" horiz-adv-x="244" 
d="M192 700v-700h-140v700h140zM97 870v-120h-120v120h120zM267 870v-120h-120v120h120z" />
    <glyph glyph-name="uni0408" unicode="&#x408;" horiz-adv-x="344" 
d="M12 0v120h37q51 0 77 22t26 94v464h140v-464q0 -121 -58 -178.5t-185 -57.5h-37z" />
    <glyph glyph-name="uni0409" unicode="&#x409;" horiz-adv-x="954" 
d="M146 420v280h466v-280h83q109 0 168 -56.5t59 -153.5q0 -103 -64 -156.5t-171 -53.5h-215v580h-187v-177q0 -172 -45 -269t-147 -152l-81 108q79 43 106.5 117.5t27.5 212.5zM679 300h-67v-180h65q60 0 82.5 21.5t22.5 68.5q0 45 -22 67.5t-81 22.5z" />
    <glyph glyph-name="uni040A" unicode="&#x40a;" horiz-adv-x="874" 
d="M607 0h-215v300h-200v-300h-140v700h140v-280h200v280h140v-280h83q109 0 168 -56.5t59 -153.5q0 -103 -64 -156.5t-171 -53.5zM599 300h-67v-180h65q60 0 82.5 21.5t22.5 68.5q0 45 -22 67.5t-81 22.5z" />
    <glyph glyph-name="uni040B" unicode="&#x40b;" horiz-adv-x="704" 
d="M512 0v260q0 55 -28.5 87.5t-71.5 32.5q-41 0 -70.5 -32.5t-29.5 -87.5v-260h-140v580h-160v120h460v-120h-160v-130h2q50 50 123 50q104 0 159.5 -63t55.5 -177v-260h-140z" />
    <glyph glyph-name="uni040C" unicode="&#x40c;" 
d="M192 700v-290h2l178 290h150l-180 -290l190 -410h-150l-126 284h-2l-62 -97v-187h-140v700h140zM282 880h140l-120 -130h-100z" />
    <glyph glyph-name="uni040D" unicode="&#x40d;" horiz-adv-x="584" 
d="M68 0v700h126v-434h2l216 434h136v-700h-126v454h-2l-226 -454h-126zM144 880h140l80 -130h-100z" />
    <glyph glyph-name="uni040E" unicode="&#x40e;" horiz-adv-x="554" 
d="M542 700l-194 -523q-39 -104 -87 -145.5t-127 -41.5h-82v130h72q19 0 32 3t28 18.5t24 43.5l-196 515h141l126 -341h2l120 341h141zM335 870h80q-19 -130 -145 -130q-119 0 -145 130h80q11 -60 65 -60t65 60z" />
    <glyph glyph-name="uni040F" unicode="&#x40f;" horiz-adv-x="584" 
d="M192 700v-580h200v580h140v-700h-192v-134h-96v134h-192v700h140z" />
    <glyph glyph-name="afii10017" unicode="&#x410;" horiz-adv-x="574" 
d="M189 150l-37 -150h-140l189 700h172l189 -700h-140l-37 150h-196zM219 270h136l-67 273h-2z" />
    <glyph glyph-name="afii10018" unicode="&#x411;" horiz-adv-x="534" 
d="M267 0h-215v700h360v-120h-220v-160h83q109 0 168 -56.5t59 -153.5q0 -103 -64 -156.5t-171 -53.5zM259 300h-67v-180h65q60 0 82.5 21.5t22.5 68.5q0 45 -22 67.5t-81 22.5z" />
    <glyph glyph-name="afii10019" unicode="&#x412;" horiz-adv-x="524" 
d="M387 371v-2q105 -42 105 -178q0 -89 -65 -140t-170 -51h-205v700h185q104 0 169.5 -43t65.5 -137q0 -61 -20 -94t-65 -55zM192 300v-180h55q105 0 105 91q0 48 -29 68.5t-86 20.5h-45zM192 580v-160h45q46 0 70.5 21.5t24.5 58.5q0 80 -95 80h-45z" />
    <glyph glyph-name="afii10020" unicode="&#x413;" horiz-adv-x="424" 
d="M192 580v-580h-140v700h360v-120h-220z" />
    <glyph glyph-name="afii10021" unicode="&#x414;" horiz-adv-x="654" 
d="M556 0h-458v-134h-96v254h51q47 44 62 112t15 188v280h466v-580h56v-254h-96v134zM269 580v-178q0 -185 -52 -282h239v460h-187z" />
    <glyph glyph-name="afii10022" unicode="&#x415;" horiz-adv-x="464" 
d="M52 700h370v-120h-230v-160h170v-120h-170v-180h240v-120h-380v700z" />
    <glyph glyph-name="afii10024" unicode="&#x416;" horiz-adv-x="844" 
d="M352 420v280h140v-280h30l150 280h150l-190 -340l200 -360h-150l-158 300h-32v-300h-140v300h-32l-158 -300h-150l200 360l-190 340h150l150 -280h30z" />
    <glyph glyph-name="afii10025" unicode="&#x417;" 
d="M512 205q0 -109 -67 -162t-173 -53q-96 0 -163.5 47t-76.5 139l130 34q7 -44 37 -72t73 -28t69 27t26 68q0 105 -95 105h-44v120h34q47 0 68.5 19.5t21.5 60.5q0 37 -20.5 58.5t-59.5 21.5q-87 0 -101 -90l-129 34q34 176 230 176q95 0 157.5 -50t62.5 -150
q0 -44 -22.5 -82t-57.5 -57v-2q100 -54 100 -164z" />
    <glyph glyph-name="afii10026" unicode="&#x418;" horiz-adv-x="584" 
d="M68 0v700h126v-434h2l216 434h136v-700h-126v454h-2l-226 -454h-126z" />
    <glyph glyph-name="afii10027" unicode="&#x419;" horiz-adv-x="584" 
d="M68 0v700h126v-434h2l216 434h136v-700h-126v454h-2l-226 -454h-126zM355 870h80q-19 -130 -145 -130q-119 0 -145 130h80q11 -60 65 -60t65 60z" />
    <glyph glyph-name="afii10028" unicode="&#x41a;" 
d="M192 700v-290h2l178 290h150l-180 -290l190 -410h-150l-126 284h-2l-62 -97v-187h-140v700h140z" />
    <glyph glyph-name="afii10029" unicode="&#x41b;" horiz-adv-x="664" 
d="M146 420v280h466v-700h-140v580h-186v-177q0 -172 -45 -269t-148 -152l-81 108q79 43 106.5 117.5t27.5 212.5z" />
    <glyph glyph-name="afii10030" unicode="&#x41c;" horiz-adv-x="724" 
d="M672 700v-700h-121v500h-2l-142 -500h-85l-147 500h-2v-500h-121v700h183l128 -439h2l126 439h181z" />
    <glyph glyph-name="afii10031" unicode="&#x41d;" horiz-adv-x="584" 
d="M192 300v-300h-140v700h140v-280h200v280h140v-700h-140v300h-200z" />
    <glyph glyph-name="afii10032" unicode="&#x41e;" 
d="M272 110q38 0 57.5 17t31 75t11.5 173q0 88 -11.5 135.5t-32 63.5t-56.5 16t-56.5 -16t-32 -63.5t-11.5 -135.5q0 -115 11.5 -173t31 -75t57.5 -17zM272 -10q-141 0 -190.5 88t-49.5 297q0 78 11 135.5t37 104.5t74 71t118 24t118 -24t74 -71t37 -104.5t11 -135.5
q0 -209 -49.5 -297t-190.5 -88z" />
    <glyph glyph-name="afii10033" unicode="&#x41f;" horiz-adv-x="584" 
d="M192 580v-580h-140v700h480v-700h-140v580h-200z" />
    <glyph glyph-name="afii10034" unicode="&#x420;" horiz-adv-x="534" 
d="M52 700h215q108 0 171.5 -55t63.5 -165q0 -106 -58.5 -163t-168.5 -57h-83v-260h-140v700zM192 380h67q60 0 81.5 22.5t21.5 77.5q0 51 -22.5 75.5t-82.5 24.5h-65v-200z" />
    <glyph glyph-name="afii10035" unicode="&#x421;" 
d="M272 -10q-141 0 -190.5 86.5t-49.5 298.5q0 78 11 135.5t37 104.5t74 71t118 24q200 0 235 -205l-131 -20q-10 63 -35.5 84t-68.5 21q-36 0 -56.5 -16t-32 -63.5t-11.5 -135.5q0 -115 11.5 -173t31 -75t57.5 -17q51 0 75.5 29.5t33.5 105.5l131 -20q-18 -122 -69 -178.5
t-171 -56.5z" />
    <glyph glyph-name="afii10036" unicode="&#x422;" horiz-adv-x="484" 
d="M12 700h460v-120h-160v-580h-140v580h-160v120z" />
    <glyph glyph-name="afii10037" unicode="&#x423;" horiz-adv-x="554" 
d="M542 700l-194 -523q-39 -104 -87 -145.5t-127 -41.5h-82v130h72q19 0 32 3t28 18.5t24 43.5l-196 515h141l126 -341h2l120 341h141z" />
    <glyph glyph-name="afii10038" unicode="&#x424;" horiz-adv-x="714" 
d="M432 700v-103q133 -11 201.5 -76.5t68.5 -170.5q0 -107 -67.5 -171t-202.5 -76v-103h-140v102q-140 10 -210 75t-70 173q0 106 71 172t209 76v102h140zM142 350q0 -51 33 -81.5t117 -36.5v235q-84 -5 -117 -35.5t-33 -81.5zM572 350q0 105 -140 116v-233q140 8 140 117z
" />
    <glyph glyph-name="afii10039" unicode="&#x425;" horiz-adv-x="574" 
d="M542 700l-175 -333l195 -367h-150l-121 245h-2l-127 -245h-150l197 364l-177 336h150l105 -217h2l103 217h150z" />
    <glyph glyph-name="afii10040" unicode="&#x426;" horiz-adv-x="590" 
d="M192 700v-580h200v580h140v-580h56v-254h-96v134h-440v700h140z" />
    <glyph glyph-name="afii10041" unicode="&#x427;" horiz-adv-x="564" 
d="M172 700v-260q0 -55 28.5 -87.5t71.5 -32.5q41 0 70.5 32.5t29.5 87.5v260h140v-700h-140v250h-2q-50 -50 -123 -50q-104 0 -159.5 63t-55.5 177v260h140z" />
    <glyph glyph-name="afii10042" unicode="&#x428;" horiz-adv-x="844" 
d="M492 700v-580h160v580h140v-700h-740v700h140v-580h160v580h140z" />
    <glyph glyph-name="afii10043" unicode="&#x429;" horiz-adv-x="850" 
d="M752 0h-700v700h140v-580h160v580h140v-580h160v580h140v-580h56v-254h-96v134z" />
    <glyph glyph-name="afii10044" unicode="&#x42a;" horiz-adv-x="714" 
d="M12 580v120h360v-280h83q109 0 168 -56.5t59 -153.5q0 -103 -64 -156.5t-171 -53.5h-215v580h-220zM439 300h-67v-180h65q60 0 82.5 21.5t22.5 68.5q0 45 -22 67.5t-81 22.5z" />
    <glyph glyph-name="afii10045" unicode="&#x42b;" horiz-adv-x="774" 
d="M742 700v-700h-140v700h140zM52 0v700h140v-280h83q109 0 168 -56.5t59 -153.5q0 -103 -64 -156.5t-171 -53.5h-215zM259 300h-67v-180h65q60 0 82.5 21.5t22.5 68.5q0 45 -22 67.5t-81 22.5z" />
    <glyph glyph-name="afii10046" unicode="&#x42c;" horiz-adv-x="534" 
d="M52 0v700h140v-280h83q109 0 168 -56.5t59 -153.5q0 -103 -64 -156.5t-171 -53.5h-215zM259 300h-67v-180h65q60 0 82.5 21.5t22.5 68.5q0 45 -22 67.5t-81 22.5z" />
    <glyph glyph-name="afii10047" unicode="&#x42d;" 
d="M288 -10q-120 0 -171 56.5t-69 178.5l131 20q9 -76 33.5 -105.5t75.5 -29.5q34 0 52 12.5t31 54.5t16 123h-169v120h169q-4 101 -26.5 135.5t-72.5 34.5q-43 0 -68.5 -21t-35.5 -84l-131 20q35 205 235 205q70 0 118 -24t74 -71t37 -104.5t11 -135.5q0 -212 -49.5 -298.5
t-190.5 -86.5z" />
    <glyph glyph-name="afii10048" unicode="&#x42e;" horiz-adv-x="804" 
d="M532 -10q-128 0 -180 72t-59 238h-101v-300h-140v700h140v-280h101q6 140 60 215t179 75q70 0 118 -24t74 -71t37 -104.5t11 -135.5q0 -209 -49.5 -297t-190.5 -88zM532 110q38 0 57.5 17t31 75t11.5 173q0 88 -11.5 135.5t-32 63.5t-56.5 16t-56.5 -16t-32 -63.5
t-11.5 -135.5q0 -115 11.5 -173t31 -75t57.5 -17z" />
    <glyph glyph-name="afii10049" unicode="&#x42f;" horiz-adv-x="554" 
d="M303 700h215v-700h-140v260h-69l-121 -260h-150l138 283q-108 51 -108 197q0 110 63.5 165t171.5 55zM311 380h67v200h-65q-60 0 -82.5 -24.5t-22.5 -75.5q0 -55 21.5 -77.5t81.5 -22.5z" />
    <glyph glyph-name="afii10065" unicode="&#x430;" horiz-adv-x="484" 
d="M302 165v70l-80 -32q-60 -22 -60 -68q0 -24 17.5 -37t42.5 -13q33 0 56.5 18t23.5 62zM235 410q-56 0 -70 -64l-117 18q9 70 56 108t131 38q86 0 141.5 -45t55.5 -134v-331h-110l-9 40h-1q-44 -50 -118 -50q-72 0 -117 34t-45 101q0 65 46.5 104t138.5 67l85 29v8
q0 43 -17.5 60t-49.5 17z" />
    <glyph glyph-name="afii10066" unicode="&#x431;" horiz-adv-x="464" 
d="M232 -10q-106 0 -153 59.5t-47 191.5q0 193 43.5 300t131.5 107q57 0 85 12.5t57 49.5l83 -61q-33 -49 -72 -71.5t-103 -22.5q-43 0 -61.5 -17.5t-23.5 -59.5h2q22 12 58 12q200 0 200 -249q0 -132 -47 -191.5t-153 -59.5zM232 390q-36 0 -53 -32.5t-17 -116.5
q0 -86 17 -118.5t53 -32.5q37 0 53.5 32t16.5 119q0 85 -17 117t-53 32z" />
    <glyph glyph-name="afii10067" unicode="&#x432;" horiz-adv-x="454" 
d="M407 368q0 -41 -12 -62.5t-43 -37.5v-2q70 -34 70 -124q0 -66 -52 -104t-135 -38h-183v500h168q84 0 135.5 -31.5t51.5 -100.5zM182 210v-110h47q64 0 64 56q0 54 -72 54h-39zM182 400v-100h38q27 0 42 14t15 36q0 50 -57 50h-38z" />
    <glyph glyph-name="afii10068" unicode="&#x433;" horiz-adv-x="364" 
d="M52 500h300v-100h-170v-400h-130v500z" />
    <glyph glyph-name="afii10069" unicode="&#x434;" 
d="M90 0v-134h-88v234h54q30 30 42 76.5t12 123.5v200h384v-400h48v-234h-88v134h-364zM240 400v-114q0 -115 -34 -186h158v300h-124z" />
    <glyph glyph-name="afii10070" unicode="&#x435;" horiz-adv-x="474" 
d="M237 90q28 0 45 15t26 58l122 -19q-13 -84 -60 -119t-133 -35q-110 0 -157.5 59.5t-47.5 201.5q0 130 48.5 194.5t156.5 64.5q107 0 156 -65t49 -194v-21h-280q0 -73 17 -106.5t58 -33.5zM237 410q-33 0 -49.5 -19.5t-22.5 -70.5h144q-10 90 -72 90z" />
    <glyph glyph-name="afii10072" unicode="&#x436;" horiz-adv-x="664" 
d="M20 500h139l88 -200h20v200h130v-200h20l88 200h139l-129 -246l137 -254h-139l-96 200h-20v-200h-130v200h-20l-96 -200h-139l137 254z" />
    <glyph glyph-name="afii10073" unicode="&#x437;" horiz-adv-x="452" 
d="M420 151q0 -81 -55 -121t-138 -40q-79 0 -127.5 31t-67.5 116l124 29q12 -76 71 -76q31 0 48 17.5t17 43.5q0 63 -65 63h-35v100h28q61 0 61 47q0 22 -13.5 35.5t-40.5 13.5q-58 0 -69 -69l-122 30q38 139 191 139q75 0 126.5 -37.5t51.5 -111.5q0 -55 -55 -95
q70 -42 70 -115z" />
    <glyph glyph-name="afii10074" unicode="&#x438;" horiz-adv-x="504" 
d="M52 0v500h120v-290h2l158 290h120v-500h-120v289h-2l-158 -289h-120z" />
    <glyph glyph-name="afii10075" unicode="&#x439;" horiz-adv-x="504" 
d="M52 0v500h120v-290h2l158 290h120v-500h-120v289h-2l-158 -289h-120zM312 680h80q-19 -130 -145 -130q-119 0 -145 130h80q11 -60 65 -60t65 60z" />
    <glyph glyph-name="afii10076" unicode="&#x43a;" horiz-adv-x="484" 
d="M182 500v-190h2l128 190h140l-133 -180l153 -320h-140l-91 213h-2l-57 -68v-145h-130v500h130z" />
    <glyph glyph-name="afii10077" unicode="&#x43b;" horiz-adv-x="554" 
d="M108 300v200h394v-500h-130v400h-134v-114q0 -118 -33 -185t-105 -119l-88 87q55 32 75.5 83.5t20.5 147.5z" />
    <glyph glyph-name="afii10078" unicode="&#x43c;" horiz-adv-x="594" 
d="M542 500v-500h-110v290h-2l-103 -290h-60l-103 290h-2v-290h-110v500h144l100 -282h2l100 282h144z" />
    <glyph glyph-name="afii10079" unicode="&#x43d;" horiz-adv-x="504" 
d="M182 210v-210h-130v500h130v-190h140v190h130v-500h-130v210h-140z" />
    <glyph glyph-name="afii10080" unicode="&#x43e;" horiz-adv-x="464" 
d="M232 -10q-107 0 -153.5 59.5t-46.5 201.5q0 259 200 259t200 -259q0 -142 -46.5 -201.5t-153.5 -59.5zM232 410q-36 0 -53 -33.5t-17 -125.5q0 -93 17 -127t53 -34q37 0 53.5 33.5t16.5 127.5q0 92 -16.5 125.5t-53.5 33.5z" />
    <glyph glyph-name="afii10081" unicode="&#x43f;" horiz-adv-x="504" 
d="M182 400v-400h-130v500h400v-500h-130v400h-140z" />
    <glyph glyph-name="afii10082" unicode="&#x440;" horiz-adv-x="484" 
d="M52 -180v680h110l10 -40h2q44 50 113 50q165 0 165 -260q0 -125 -44.5 -192.5t-120.5 -67.5q-72 0 -103 50h-2v-220h-130zM247 400q-43 0 -65 -45v-160q0 -50 19 -72.5t46 -22.5q38 0 56.5 30.5t18.5 119.5q0 150 -75 150z" />
    <glyph glyph-name="afii10083" unicode="&#x441;" horiz-adv-x="454" 
d="M309 173l123 -19q-9 -89 -59.5 -126.5t-140.5 -37.5q-107 0 -153.5 59.5t-46.5 201.5q0 259 200 259q175 0 196 -145l-121 -19q-12 64 -75 64q-36 0 -53 -33.5t-17 -125.5q0 -93 17 -127t53 -34q32 0 52 17t25 66z" />
    <glyph glyph-name="afii10084" unicode="&#x442;" horiz-adv-x="394" 
d="M12 500h370v-100h-120v-400h-130v400h-120v100z" />
    <glyph glyph-name="afii10085" unicode="&#x443;" horiz-adv-x="484" 
d="M462 500l-160 -500q-15 -49 -26 -75.5t-32 -54t-53 -39t-79 -11.5h-60v100h20q38 0 62 16.5t38 63.5l-150 500h130l89 -342h2l89 342h130z" />
    <glyph glyph-name="afii10086" unicode="&#x444;" horiz-adv-x="734" 
d="M432 700v-232h2q45 42 103 42q165 0 165 -260q0 -125 -44.5 -192.5t-120.5 -67.5q-72 0 -103 50h-2v-220h-130v220h-2q-31 -50 -103 -50q-76 0 -120.5 67.5t-44.5 192.5q0 260 165 260q59 0 103 -42h2v232h130zM497 400q-43 0 -65 -45v-171q4 -84 65 -84q38 0 56.5 30.5
t18.5 119.5q0 150 -75 150zM237 400q-75 0 -75 -150q0 -89 18.5 -119.5t56.5 -30.5q27 0 46 22.5t19 72.5v160q-22 45 -65 45z" />
    <glyph glyph-name="afii10087" unicode="&#x445;" horiz-adv-x="484" 
d="M448 500l-139 -237l153 -263h-130l-89 161h-2l-89 -161h-130l149 260l-136 240h130l74 -141h2l77 141h130z" />
    <glyph glyph-name="afii10088" unicode="&#x446;" horiz-adv-x="502" 
d="M412 0h-360v500h130v-400h140v400h130v-400h48v-234h-88v134z" />
    <glyph glyph-name="afii10089" unicode="&#x447;" horiz-adv-x="464" 
d="M162 500v-186q0 -35 17 -55.5t43 -20.5q25 0 42.5 20.5t17.5 55.5v186h130v-500h-130v157h-2q-36 -19 -76 -19q-83 0 -127.5 46t-44.5 130v186h130z" />
    <glyph glyph-name="afii10090" unicode="&#x448;" horiz-adv-x="714" 
d="M422 500v-400h110v400h130v-500h-610v500h130v-400h110v400h130z" />
    <glyph glyph-name="afii10091" unicode="&#x449;" horiz-adv-x="712" 
d="M622 0h-570v500h130v-400h110v400h130v-400h110v400h130v-400h48v-234h-88v134z" />
    <glyph glyph-name="afii10092" unicode="&#x44a;" horiz-adv-x="554" 
d="M12 400v100h280v-200h49q87 0 134 -39.5t47 -111.5q0 -74 -50.5 -111.5t-136.5 -37.5h-173v400h-150zM321 200h-29v-100h30q38 0 53.5 11t15.5 38t-16 39t-54 12z" />
    <glyph glyph-name="afii10093" unicode="&#x44b;" horiz-adv-x="664" 
d="M52 0v500h130v-200h49q87 0 134 -39.5t47 -111.5q0 -74 -50.5 -111.5t-136.5 -37.5h-173zM211 200h-29v-100h30q38 0 53.5 11t15.5 38t-16 39t-54 12zM612 500v-500h-130v500h130z" />
    <glyph glyph-name="afii10094" unicode="&#x44c;" horiz-adv-x="444" 
d="M52 0v500h130v-200h49q87 0 134 -39.5t47 -111.5q0 -74 -50.5 -111.5t-136.5 -37.5h-173zM211 200h-29v-100h30q38 0 53.5 11t15.5 38t-16 39t-54 12z" />
    <glyph glyph-name="afii10095" unicode="&#x44d;" horiz-adv-x="454" 
d="M291 210h-129v90h129q-4 63 -21 86.5t-48 23.5q-63 0 -75 -64l-121 19q21 145 196 145q200 0 200 -259q0 -142 -46.5 -201.5t-153.5 -59.5q-90 0 -140.5 37.5t-59.5 126.5l123 19q5 -49 25 -66t52 -17t48.5 25.5t20.5 94.5z" />
    <glyph glyph-name="afii10096" unicode="&#x44e;" horiz-adv-x="694" 
d="M462 -10q-97 0 -144 48.5t-54 161.5h-82v-200h-130v500h130v-200h82q17 210 198 210q200 0 200 -259q0 -142 -46.5 -201.5t-153.5 -59.5zM462 410q-36 0 -53 -33.5t-17 -125.5q0 -93 17 -127t53 -34q37 0 53.5 33.5t16.5 127.5q0 92 -16.5 125.5t-53.5 33.5z" />
    <glyph glyph-name="afii10097" unicode="&#x44f;" horiz-adv-x="454" 
d="M225 500h177v-500h-130v182h-26l-95 -182h-139l110 202q-83 43 -83 138q0 82 50 121t136 39zM241 282h31v118h-29q-74 0 -74 -60q0 -32 17 -45t55 -13z" />
    <glyph glyph-name="uni0450" unicode="&#x450;" horiz-adv-x="474" 
d="M237 90q28 0 45 15t26 58l122 -19q-13 -84 -60 -119t-133 -35q-110 0 -157.5 59.5t-47.5 201.5q0 130 48.5 194.5t156.5 64.5q107 0 156 -65t49 -194v-21h-280q0 -73 17 -106.5t58 -33.5zM237 410q-33 0 -49.5 -19.5t-22.5 -70.5h144q-10 90 -72 90zM87 690h140l80 -130
h-100z" />
    <glyph glyph-name="afii10071" unicode="&#x451;" horiz-adv-x="474" 
d="M237 90q28 0 45 15t26 58l122 -19q-13 -84 -60 -119t-133 -35q-110 0 -157.5 59.5t-47.5 201.5q0 130 48.5 194.5t156.5 64.5q107 0 156 -65t49 -194v-21h-280q0 -73 17 -106.5t58 -33.5zM237 410q-33 0 -49.5 -19.5t-22.5 -70.5h144q-10 90 -72 90zM212 680v-120h-120
v120h120zM382 680v-120h-120v120h120z" />
    <glyph glyph-name="uni0452" unicode="&#x452;" horiz-adv-x="494" 
d="M442 280v-20q0 -162 -42 -272t-137 -178l-81 93q76 54 103 133.5t27 223.5v20q0 44 -16.5 72t-48.5 28q-40 0 -75 -35v-345h-130v540h-50v80h50v80h130v-80h120v-80h-120v-100h2q50 50 123 50q71 0 108 -58t37 -152z" />
    <glyph glyph-name="uni0453" unicode="&#x453;" horiz-adv-x="364" 
d="M52 500h300v-100h-170v-400h-130v500zM202 690h140l-120 -130h-100z" />
    <glyph glyph-name="uni0454" unicode="&#x454;" horiz-adv-x="454" 
d="M292 210h-129q4 -69 20.5 -94.5t48.5 -25.5t52 17t25 66l123 -19q-9 -89 -59.5 -126.5t-140.5 -37.5q-107 0 -153.5 59.5t-46.5 201.5q0 259 200 259q175 0 196 -145l-121 -19q-12 64 -75 64q-31 0 -48 -23.5t-21 -86.5h129v-90z" />
    <glyph glyph-name="uni0455" unicode="&#x455;" horiz-adv-x="424" 
d="M387 383l-112 -26q-24 53 -68 53q-20 0 -32.5 -9t-12.5 -25q0 -33 80 -66q32 -13 55.5 -26t50 -34t40.5 -50.5t14 -65.5q0 -69 -55 -106.5t-136 -37.5q-76 0 -129.5 34t-69.5 108l117 27q26 -69 85 -69q57 0 57 44q0 21 -15.5 33.5t-62.5 32.5l-43.5 20.5t-42 24.5
t-39 32.5t-25.5 41t-11 52.5q0 66 45.5 102.5t124.5 36.5q72 0 116.5 -29.5t68.5 -97.5z" />
    <glyph glyph-name="uni0456" unicode="&#x456;" horiz-adv-x="234" 
d="M182 500v-500h-130v500h130zM182 690v-120h-130v120h130z" />
    <glyph glyph-name="uni0457" unicode="&#x457;" horiz-adv-x="234" 
d="M182 500v-500h-130v500h130zM92 680v-120h-120v120h120zM262 680v-120h-120v120h120z" />
    <glyph glyph-name="uni0458" unicode="&#x458;" horiz-adv-x="244" 
d="M192 500v-480q0 -111 -29 -155.5t-121 -44.5h-60v100h20q35 0 47.5 15t12.5 55v510h130zM192 690v-120h-130v120h130z" />
    <glyph glyph-name="uni0459" unicode="&#x459;" horiz-adv-x="754" 
d="M98 300v200h394v-200h49q87 0 134 -39.5t47 -111.5q0 -74 -50.5 -111.5t-136.5 -37.5h-173v400h-134v-114q0 -118 -33 -185t-105 -119l-88 87q55 32 75.5 83.5t20.5 147.5zM521 200h-29v-100h30q38 0 53.5 11t15.5 38t-16 39t-54 12z" />
    <glyph glyph-name="uni045A" unicode="&#x45a;" horiz-adv-x="714" 
d="M322 310v190h130v-200h49q87 0 134 -39.5t47 -111.5q0 -74 -50.5 -111.5t-136.5 -37.5h-173v210h-140v-210h-130v500h130v-190h140zM481 200h-29v-100h30q38 0 53.5 11t15.5 38t-16 39t-54 12z" />
    <glyph glyph-name="uni045B" unicode="&#x45b;" horiz-adv-x="494" 
d="M-8 540v80h50v80h130v-80h120v-80h-120v-100h2q50 50 123 50q71 0 108 -58t37 -152v-280h-130v280q0 44 -16.5 72t-48.5 28q-40 0 -75 -35v-345h-130v540h-50z" />
    <glyph glyph-name="uni045C" unicode="&#x45c;" horiz-adv-x="484" 
d="M252 690h140l-120 -130h-100zM182 500v-190h2l128 190h140l-133 -180l153 -320h-140l-91 213h-2l-57 -68v-145h-130v500h130z" />
    <glyph glyph-name="uni045D" unicode="&#x45d;" horiz-adv-x="504" 
d="M52 0v500h120v-290h2l158 290h120v-500h-120v289h-2l-158 -289h-120zM115 690h140l80 -130h-100z" />
    <glyph glyph-name="uni045E" unicode="&#x45e;" horiz-adv-x="484" 
d="M462 500l-160 -500q-15 -49 -26 -75.5t-32 -54t-53 -39t-79 -11.5h-60v100h20q38 0 62 16.5t38 63.5l-150 500h130l89 -342h2l89 342h130zM307 680h80q-19 -130 -145 -130q-119 0 -145 130h80q11 -60 65 -60t65 60z" />
    <glyph glyph-name="uni045F" unicode="&#x45f;" horiz-adv-x="504" 
d="M208 0h-156v500h130v-400h140v400h130v-500h-156v-134h-88v134z" />
    <glyph glyph-name="afii10050" unicode="&#x490;" horiz-adv-x="460" 
d="M52 700h300v134h96v-254h-256v-580h-140v700z" />
    <glyph glyph-name="afii10098" unicode="&#x491;" horiz-adv-x="392" 
d="M380 400h-198v-400h-130v500h240v134h88v-234z" />
    <glyph glyph-name="uni0492" unicode="&#x492;" horiz-adv-x="484" 
d="M12 280v120h100v300h360v-120h-220v-180h120v-120h-120v-280h-140v280h-100z" />
    <glyph glyph-name="uni0493" unicode="&#x493;" horiz-adv-x="384" 
d="M12 280h70v220h290v-100h-160v-120h90v-100h-90v-180h-130v180h-70v100z" />
    <glyph glyph-name="uni0496" unicode="&#x496;" horiz-adv-x="844" 
d="M352 420v280h140v-280h30l150 280h150l-190 -340l133 -240h67v-254h-96v134h-54l-158 300h-32v-300h-140v300h-32l-158 -300h-150l200 360l-190 340h150l150 -280h30z" />
    <glyph glyph-name="uni0497" unicode="&#x497;" horiz-adv-x="664" 
d="M20 500h139l88 -200h20v200h130v-200h20l88 200h139l-129 -246l83 -154h54v-234h-88v134h-51l-96 200h-20v-200h-130v200h-20l-96 -200h-139l137 254z" />
    <glyph glyph-name="uni049A" unicode="&#x49a;" 
d="M192 700v-290h2l178 290h150l-180 -290l134 -290h56v-254h-96v134h-54l-126 284h-2l-62 -97v-187h-140v700h140z" />
    <glyph glyph-name="uni049B" unicode="&#x49b;" horiz-adv-x="474" 
d="M182 500v-190h2l128 190h140l-133 -180l105 -220h48v-234h-88v134h-52l-91 213h-2l-57 -68v-145h-130v500h130z" />
    <glyph glyph-name="uni04A2" unicode="&#x4a2;" horiz-adv-x="590" 
d="M492 0h-100v300h-200v-300h-140v700h140v-280h200v280h140v-580h56v-254h-96v134z" />
    <glyph glyph-name="uni04A3" unicode="&#x4a3;" horiz-adv-x="502" 
d="M412 0h-90v210h-140v-210h-130v500h130v-190h140v190h130v-400h48v-234h-88v134z" />
    <glyph glyph-name="uni04AE" unicode="&#x4ae;" horiz-adv-x="554" 
d="M278 420l114 280h150l-190 -440v-260h-140v260l-200 440h150l114 -280h2z" />
    <glyph glyph-name="uni04AF" unicode="&#x4af;" horiz-adv-x="464" 
d="M452 500l-155 -460v-220h-130v220l-155 460h130l89 -302h2l89 302h130z" />
    <glyph glyph-name="uni04B0" unicode="&#x4b0;" horiz-adv-x="554" 
d="M278 420l114 280h150l-173 -400h133v-100h-150v-200h-140v200h-150v100h132l-182 400h150l114 -280h2z" />
    <glyph glyph-name="uni04B1" unicode="&#x4b1;" horiz-adv-x="464" 
d="M452 500l-139 -410h104v-90h-120v-180h-130v180h-120v90h103l-138 410h130l89 -302h2l89 302h130z" />
    <glyph glyph-name="uni04B2" unicode="&#x4b2;" horiz-adv-x="574" 
d="M542 700l-175 -333l131 -247h64v-254h-96v134h-54l-121 245h-2l-127 -245h-150l197 364l-177 336h150l105 -217h2l103 217h150z" />
    <glyph glyph-name="uni04B3" unicode="&#x4b3;" horiz-adv-x="484" 
d="M448 500l-139 -237l95 -163h58v-234h-88v134h-42l-89 161h-2l-89 -161h-130l149 260l-136 240h130l74 -141h2l77 141h130z" />
    <glyph glyph-name="uni04B6" unicode="&#x4b6;" horiz-adv-x="570" 
d="M172 700v-260q0 -55 28.5 -87.5t71.5 -32.5q41 0 70.5 32.5t29.5 87.5v260h140v-580h56v-254h-96v134h-100v250h-2q-50 -50 -123 -50q-104 0 -159.5 63t-55.5 177v260h140z" />
    <glyph glyph-name="uni04B7" unicode="&#x4b7;" horiz-adv-x="462" 
d="M162 500v-186q0 -35 17 -55.5t43 -20.5q25 0 42.5 20.5t17.5 55.5v186h130v-400h48v-234h-88v134h-90v157h-2q-36 -19 -76 -19q-83 0 -127.5 46t-44.5 130v186h130z" />
    <glyph glyph-name="uni04BA" unicode="&#x4ba;" horiz-adv-x="584" 
d="M392 0v260q0 55 -28.5 87.5t-71.5 32.5q-41 0 -70.5 -32.5t-29.5 -87.5v-260h-140v700h140v-250h2q50 50 123 50q104 0 159.5 -63t55.5 -177v-260h-140z" />
    <glyph glyph-name="uni04BB" unicode="&#x4bb;" horiz-adv-x="484" 
d="M302 0v186q0 35 -17 55.5t-43 20.5q-25 0 -42.5 -20.5t-17.5 -55.5v-186h-130v500h130v-157h2q36 19 76 19q83 0 127.5 -46t44.5 -130v-186h-130z" />
    <glyph glyph-name="uni04C1" unicode="&#x4c1;" horiz-adv-x="844" 
d="M352 420v280h140v-280h30l150 280h150l-190 -340l200 -360h-150l-158 300h-32v-300h-140v300h-32l-158 -300h-150l200 360l-190 340h150l150 -280h30zM489 870h80q-19 -130 -145 -130q-119 0 -145 130h80q11 -60 65 -60t65 60z" />
    <glyph glyph-name="uni04C2" unicode="&#x4c2;" horiz-adv-x="664" 
d="M20 500h139l88 -200h20v200h130v-200h20l88 200h139l-129 -246l137 -254h-139l-96 200h-20v-200h-130v200h-20l-96 -200h-139l137 254zM405 680h80q-19 -130 -145 -130q-119 0 -145 130h80q11 -60 65 -60t65 60z" />
    <glyph glyph-name="uni04D8" unicode="&#x4d8;" horiz-adv-x="564" 
d="M282 590q-45 0 -64 -23t-31 -85l-145 26q25 113 80 157.5t160 44.5q137 0 193.5 -84t56.5 -278q0 -182 -57 -270t-193 -88q-134 0 -192 88.5t-58 269.5v22h350q0 124 -20.5 172t-79.5 48zM282 110q50 0 69 30.5t28 118.5h-194q8 -86 28.5 -117.5t68.5 -31.5z" />
    <glyph glyph-name="uni04D9" unicode="&#x4d9;" horiz-adv-x="474" 
d="M253 410q-28 0 -45 -15t-26 -58l-122 19q13 84 60 119t133 35q110 0 157.5 -59.5t47.5 -201.5q0 -130 -48.5 -194.5t-156.5 -64.5q-107 0 -156 65t-49 194v21h280q0 73 -17 106.5t-58 33.5zM253 90q33 0 49.5 19.5t22.5 70.5h-144q10 -90 72 -90z" />
    <glyph glyph-name="uni04E2" unicode="&#x4e2;" horiz-adv-x="584" 
d="M68 0v700h126v-434h2l216 434h136v-700h-126v454h-2l-226 -454h-126zM467 828v-80h-280v80h280z" />
    <glyph glyph-name="uni04E3" unicode="&#x4e3;" horiz-adv-x="504" 
d="M52 0v500h120v-290h2l158 290h120v-500h-120v289h-2l-158 -289h-120zM382 660v-80h-280v80h280z" />
    <glyph glyph-name="uni04E8" unicode="&#x4e8;" 
d="M272 -10q-141 0 -190.5 88t-49.5 297q0 78 11 135.5t37 104.5t74 71t118 24t118 -24t74 -71t37 -104.5t11 -135.5q0 -209 -49.5 -297t-190.5 -88zM272 110q34 0 52 12.5t30.5 54.5t15.5 123h-197q3 -81 16 -123t31 -54.5t52 -12.5zM272 590q-50 0 -72.5 -34.5
t-26.5 -135.5h198q-4 101 -26.5 135.5t-72.5 34.5z" />
    <glyph glyph-name="uni04E9" unicode="&#x4e9;" horiz-adv-x="464" 
d="M232 -10q-107 0 -153.5 59.5t-46.5 201.5q0 259 200 259t200 -259q0 -142 -46.5 -201.5t-153.5 -59.5zM232 410q-31 0 -48 -23.5t-21 -86.5h137q-4 63 -20.5 86.5t-47.5 23.5zM232 90q31 0 47.5 23.5t20.5 86.5h-137q5 -63 21.5 -86.5t47.5 -23.5z" />
    <glyph glyph-name="uni04EE" unicode="&#x4ee;" horiz-adv-x="554" 
d="M542 700l-194 -523q-39 -104 -87 -145.5t-127 -41.5h-82v130h72q19 0 32 3t28 18.5t24 43.5l-196 515h141l126 -341h2l120 341h141zM420 830v-80h-280v80h280z" />
    <glyph glyph-name="uni04EF" unicode="&#x4ef;" horiz-adv-x="484" 
d="M462 500l-160 -500q-15 -49 -26 -75.5t-32 -54t-53 -39t-79 -11.5h-60v100h20q38 0 62 16.5t38 63.5l-150 500h130l89 -342h2l89 342h130zM382 660v-80h-280v80h280z" />
    <glyph glyph-name="endash" unicode="&#x2013;" horiz-adv-x="484" 
d="M42 278v100h400v-100h-400z" />
    <glyph glyph-name="emdash" unicode="&#x2014;" horiz-adv-x="734" 
d="M42 278v100h650v-100h-650z" />
    <glyph glyph-name="quoteleft" unicode="&#x2018;" horiz-adv-x="204" 
d="M42 470v120l40 110h60l-30 -110h50v-120h-120z" />
    <glyph glyph-name="quoteright" unicode="&#x2019;" horiz-adv-x="204" 
d="M162 700v-120l-40 -110h-60l30 110h-50v120h120z" />
    <glyph glyph-name="quotesinglbase" unicode="&#x201a;" horiz-adv-x="204" 
d="M162 120v-120l-40 -110h-60l30 110h-50v120h120z" />
    <glyph glyph-name="quotedblleft" unicode="&#x201c;" horiz-adv-x="374" 
d="M42 470v120l40 110h60l-30 -110h50v-120h-120zM212 470v120l40 110h60l-30 -110h50v-120h-120z" />
    <glyph glyph-name="quotedblright" unicode="&#x201d;" horiz-adv-x="374" 
d="M332 700v-120l-40 -110h-60l30 110h-50v120h120zM162 700v-120l-40 -110h-60l30 110h-50v120h120z" />
    <glyph glyph-name="quotedblbase" unicode="&#x201e;" horiz-adv-x="374" 
d="M332 120v-120l-40 -110h-60l30 110h-50v120h120zM162 120v-120l-40 -110h-60l30 110h-50v120h120z" />
    <glyph glyph-name="dagger" unicode="&#x2020;" horiz-adv-x="324" 
d="M122 700h80v-90h70v-70h-70v-240h-80v240h-70v70h70v90z" />
    <glyph glyph-name="daggerdbl" unicode="&#x2021;" horiz-adv-x="324" 
d="M122 700h80v-90h70v-70h-70v-80h70v-70h-70v-90h-80v90h-70v70h70v80h-70v70h70v90z" />
    <glyph glyph-name="bullet" unicode="&#x2022;" horiz-adv-x="344" 
d="M42 291q0 54 38 91.5t92 37.5t92 -37.5t38 -91.5q0 -53 -38.5 -90.5t-91.5 -37.5q-54 0 -92 37.5t-38 90.5z" />
    <glyph glyph-name="ellipsis" unicode="&#x2026;" horiz-adv-x="584" 
d="M162 120v-120h-120v120h120zM352 120v-120h-120v120h120zM542 120v-120h-120v120h120z" />
    <glyph glyph-name="perthousand" unicode="&#x2030;" horiz-adv-x="1004" 
d="M582 700l-380 -710h-90l380 710h90zM185 377q-69 0 -101 38.5t-32 128.5q0 166 133 166t133 -166q0 -90 -32 -128.5t-101 -38.5zM185 631q-47 0 -47 -87q0 -88 47 -88t47 88q0 87 -47 87zM509 -10q-69 0 -101 38.5t-32 128.5q0 166 133 166t133 -166q0 -90 -32 -128.5
t-101 -38.5zM509 244q-47 0 -47 -87q0 -88 47 -88t47 88q0 87 -47 87zM819 -10q-69 0 -101 38.5t-32 128.5q0 166 133 166t133 -166q0 -90 -32 -128.5t-101 -38.5zM819 244q-47 0 -47 -87q0 -88 47 -88t47 88q0 87 -47 87z" />
    <glyph glyph-name="guilsinglleft" unicode="&#x2039;" horiz-adv-x="364" 
d="M256 62l-204 201l204 200l56 -55l-135 -145l135 -146z" />
    <glyph glyph-name="guilsinglright" unicode="&#x203a;" horiz-adv-x="364" 
d="M312 263l-204 -201l-56 55l135 146l-135 145l56 55z" />
    <glyph glyph-name="fraction" unicode="&#x2044;" horiz-adv-x="454" 
d="M462 700l-380 -710h-90l380 710h90z" />
    <glyph glyph-name="Euro" unicode="&#x20ac;" horiz-adv-x="554" 
d="M400 184l130 -34q-23 -81 -75.5 -120.5t-152.5 -39.5q-115 0 -167.5 56t-66.5 184h-76l26 80h45q-1 19 -1 60h-70l26 80h47q10 125 64 192.5t173 67.5q187 0 230 -179l-131 -22q-12 48 -36 64.5t-63 16.5q-46 0 -69 -29t-29 -111h193l-26 -80h-169q0 -42 1 -60h149
l-26 -80h-118q9 -73 30.5 -96.5t63.5 -23.5q39 0 62.5 17t35.5 57z" />
    <glyph glyph-name="afii61352" unicode="&#x2116;" horiz-adv-x="1004" 
d="M602 100h344v-100h-344v100zM532 700v-700h-126l-226 454h-2v-454h-126v700h136l216 -434h2v434h126zM772 140q-107 0 -153.5 59.5t-46.5 201.5q0 259 200 259t200 -259q0 -142 -46.5 -201.5t-153.5 -59.5zM772 560q-36 0 -53 -33.5t-17 -125.5q0 -93 17 -127t53 -34
q37 0 53.5 33.5t16.5 127.5q0 92 -16.5 125.5t-53.5 33.5z" />
    <glyph glyph-name="trademark" unicode="&#x2122;" horiz-adv-x="614" 
d="M52 700h201v-59h-66v-221h-69v221h-66v59zM500 580h-2l-46 -160h-45l-48 160h-2v-160h-62v280h87l46 -149h2l46 149h86v-280h-62v160z" />
    <glyph glyph-name="Omega" unicode="&#x2126;" horiz-adv-x="524" 
d="M82 120v2q-60 92 -60 253q0 78 11 135.5t37 104.5t74 71t118 24t118 -24t74 -71t37 -104.5t11 -135.5q0 -161 -60 -253v-2h70v-120h-210v140q32 16 46 70t14 165q0 88 -11.5 135.5t-32 63.5t-56.5 16t-56.5 -16t-32 -63.5t-11.5 -135.5q0 -207 60 -235v-140h-210v120h70z
" />
    <glyph glyph-name="Delta" unicode="&#x2206;" horiz-adv-x="574" 
d="M562 0h-550l189 700h172zM182 120h210l-104 423h-2z" />
    <glyph glyph-name="minus" unicode="&#x2212;" horiz-adv-x="524" 
d="M42 278v100h440v-100h-440z" />
    <glyph glyph-name="radical" unicode="&#x221a;" horiz-adv-x="644" 
d="M592 770l-199 -888h-104l-136 424l-74 -27l-27 80l162 61l123 -351l154 701h101z" />
    <glyph glyph-name="approxequal" unicode="&#x2248;" horiz-adv-x="524" 
d="M184 430q-17 0 -32 -14.5t-37 -51.5l-73 44q60 112 142 112q34 0 84.5 -31t73.5 -31q17 0 30.5 12.5t36.5 49.5l73 -44q-59 -111 -140 -111q-36 0 -85 32.5t-73 32.5zM184 210q-17 0 -32 -14.5t-37 -51.5l-73 44q60 112 142 112q34 0 84.5 -31t73.5 -31q17 0 30.5 12.5
t36.5 49.5l73 -44q-59 -111 -140 -111q-36 0 -85 32.5t-73 32.5z" />
    <glyph glyph-name="notequal" unicode="&#x2260;" horiz-adv-x="524" 
d="M432 588l-50 -100h100v-100h-150l-60 -120h210v-100h-260l-50 -100h-80l50 100h-100v100h150l60 120h-210v100h260l50 100h80z" />
    <glyph glyph-name="lessequal" unicode="&#x2264;" horiz-adv-x="524" 
d="M42 278v100l440 178v-110l-290 -118l290 -118v-210h-440v100h440z" />
    <glyph glyph-name="greaterequal" unicode="&#x2265;" horiz-adv-x="524" 
d="M42 0v100h440v-100h-440zM482 378v-100l-440 -178v110l290 118l-290 118v110z" />
    <glyph glyph-name="uniF639" unicode="&#xf639;" 
d="M272 110q38 0 57.5 17t31 75t11.5 173q0 88 -11.5 135.5t-32 63.5t-56.5 16t-56.5 -16t-32 -63.5t-11.5 -135.5q0 -115 11.5 -173t31 -75t57.5 -17zM272 -10q-141 0 -190.5 88t-49.5 297q0 78 11 135.5t37 104.5t74 71t118 24t118 -24t74 -71t37 -104.5t11 -135.5
q0 -209 -49.5 -297t-190.5 -88z" />
    <glyph glyph-name="uniF63A" unicode="&#xf63a;" 
d="M273 710q100 0 164.5 -54.5t64.5 -145.5q0 -74 -28 -128.5t-86 -110.5l-156 -151h260v-120h-440v106l223 225q87 88 87 179q0 34 -23.5 57t-65.5 23q-83 0 -101 -110l-130 34q42 196 231 196z" />
    <glyph glyph-name="uniF63B" unicode="&#xf63b;" 
d="M512 205q0 -109 -67 -162t-173 -53q-96 0 -163.5 47t-76.5 139l130 34q7 -44 37 -72t73 -28t69 27t26 68q0 105 -95 105h-44v120h34q47 0 68.5 19.5t21.5 60.5q0 37 -20.5 58.5t-59.5 21.5q-87 0 -101 -90l-129 34q34 176 230 176q95 0 157.5 -50t62.5 -150
q0 -44 -22.5 -82t-57.5 -57v-2q100 -54 100 -164z" />
    <glyph glyph-name="uniF63C" unicode="&#xf63c;" 
d="M153 264h169v259h-2l-167 -257v-2zM32 284l270 416h150v-436h80v-120h-80v-144h-130v144h-290v140z" />
    <glyph glyph-name="uniF63D" unicode="&#xf63d;" 
d="M32 156l130 34q8 -46 31.5 -68t66.5 -22q61 0 86.5 36t25.5 112q0 64 -27 98t-75 34q-62 0 -98 -60h-120l40 380h368v-120h-261l-15 -136h2q43 46 104 46q102 0 157 -67t55 -178q0 -255 -242 -255q-105 0 -160 46.5t-68 119.5z" />
    <glyph glyph-name="uniF63E" unicode="&#xf63e;" 
d="M182 393h2q47 49 117 49q94 0 152.5 -60.5t58.5 -147.5q0 -49 -12 -91t-37.5 -77.5t-72 -55.5t-110.5 -20q-134 0 -186 86t-52 274q0 191 52.5 275.5t187.5 84.5q100 0 150 -38t73 -118l-129 -34q-10 43 -32.5 56.5t-61.5 13.5q-51 0 -75.5 -41t-24.5 -156zM179 221
q0 -55 27 -83t75 -28t75 28t27 83t-27 83.5t-75 28.5t-75 -28.5t-27 -83.5z" />
    <glyph glyph-name="uniF63F" unicode="&#xf63f;" 
d="M52 580v120h430v-100l-200 -600h-140l200 580h-290z" />
    <glyph glyph-name="uniF640" unicode="&#xf640;" 
d="M512 200q0 -103 -63 -156.5t-177 -53.5q-107 0 -173.5 54.5t-66.5 155.5q0 117 100 169v2q-70 38 -70 149q0 96 54.5 143t155.5 47q210 0 210 -190q0 -110 -70 -149v-2q100 -52 100 -169zM192 515q0 -85 80 -85q37 0 58.5 21t21.5 64q0 85 -80 85t-80 -85zM177 205
q0 -52 25 -78.5t70 -26.5t70 26.5t25 78.5t-25 78.5t-70 26.5t-70 -26.5t-25 -78.5z" />
    <glyph glyph-name="uniF641" unicode="&#xf641;" 
d="M362 307h-2q-47 -49 -117 -49q-94 0 -152.5 60.5t-58.5 147.5q0 49 12 91t37.5 77.5t72 55.5t110.5 20q134 0 186 -86t52 -274q0 -191 -52.5 -275.5t-187.5 -84.5q-100 0 -150 38t-73 118l129 34q10 -43 32.5 -56.5t61.5 -13.5q51 0 75.5 41t24.5 156zM365 479
q0 55 -27 83t-75 28t-75 -28t-27 -83t27 -83.5t75 -28.5t75 28.5t27 83.5z" />
    <glyph glyph-name="commaaccent" unicode="&#xf6c3;" horiz-adv-x="204" 
d="M152 -40v-100l-29 -70h-45l22 70h-48v100h100z" />
    <glyph glyph-name="uniF6DC" unicode="&#xf6dc;" 
d="M92 0v120h140v424h-2l-98 -49l-50 101l190 104h90v-580h140v-120h-410z" />
    <glyph glyph-name="Tcedilla" horiz-adv-x="484" 
d="M12 700h460v-120h-160v-580h-41l-22 -42l1 -1q8 3 17 3q35 0 60 -24t25 -57q0 -37 -32 -63t-91 -26q-61 0 -97 38l23 39q35 -29 71 -29q18 0 32.5 9.5t14.5 26.5q0 16 -14.5 25.5t-32.5 9.5q-20 0 -31 -8l-16 8l52 91h-59v580h-160v120z" />
    <glyph glyph-name="tcedilla" horiz-adv-x="294" 
d="M52 -172l23 39q35 -29 71 -29q18 0 32.5 9.5t14.5 26.5q0 16 -14.5 25.5t-32.5 9.5q-20 0 -31 -8l-16 8l55 96q-54 12 -73 51t-19 114v230h-50v100h50l14 148h116v-148h70v-100h-70v-230q0 -40 12.5 -55t47.5 -15h20v-100h-81l-22 -42l1 -1q8 3 17 3q35 0 60 -24t25 -57
q0 -37 -32 -63t-91 -26q-61 0 -97 38z" />
    <glyph glyph-name="H_u_s_q_v_a_r_n_a" horiz-adv-x="4236" 
d="M192 300v-300h-140v700h140v-280h200v280h140v-700h-140v300h-200zM636 200v300h130v-300q0 -44 16.5 -72t48.5 -28q40 0 75 35v365h130v-500h-110l-10 40h-2q-22 -22 -60.5 -36t-72.5 -14q-71 0 -108 58t-37 152zM1475 383l-112 -26q-24 53 -68 53q-20 0 -32.5 -9
t-12.5 -25q0 -33 80 -66q32 -13 55.5 -26t50 -34t40.5 -50.5t14 -65.5q0 -69 -55 -106.5t-136 -37.5q-76 0 -129.5 34t-69.5 108l117 27q26 -69 85 -69q57 0 57 44q0 21 -15.5 33.5t-62.5 32.5l-43.5 20.5t-42 24.5t-39 32.5t-25.5 41t-11 52.5q0 66 45.5 102.5t124.5 36.5
q72 0 116.5 -29.5t68.5 -97.5zM1944 500v-680h-130v220h-2q-31 -50 -103 -50q-76 0 -120.5 67.5t-44.5 192.5q0 260 165 260q69 0 113 -50h2l10 40h110zM1749 400q-75 0 -75 -150q0 -89 18.5 -119.5t56.5 -30.5q27 0 46 22.5t19 72.5v160q-22 45 -65 45zM2448 500l-150 -500
h-140l-150 500h130l89 -342h2l89 342h130zM2742 165v70l-80 -32q-60 -22 -60 -68q0 -24 17.5 -37t42.5 -13q33 0 56.5 18t23.5 62zM2675 410q-56 0 -70 -64l-117 18q9 70 56 108t131 38q86 0 141.5 -45t55.5 -134v-331h-110l-9 40h-1q-44 -50 -118 -50q-72 0 -117 34
t-45 101q0 65 46.5 104t138.5 67l85 29v8q0 43 -17.5 60t-49.5 17zM3236 510v-115q-22 5 -45 5q-37 0 -61 -25t-24 -80v-295h-130v500h110l10 -50h2q40 60 138 60zM3700 300v-300h-130v300q0 44 -16.5 72t-48.5 28q-40 0 -75 -35v-365h-130v500h110l10 -40h2q22 22 60.5 36
t72.5 14q71 0 108 -58t37 -152zM4054 165v70l-80 -32q-60 -22 -60 -68q0 -24 17.5 -37t42.5 -13q33 0 56.5 18t23.5 62zM3987 410q-56 0 -70 -64l-117 18q9 70 56 108t131 38q86 0 141.5 -45t55.5 -134v-331h-110l-9 40h-1q-44 -50 -118 -50q-72 0 -117 34t-45 101
q0 65 46.5 104t138.5 67l85 29v8q0 43 -17.5 60t-49.5 17z" />
    <glyph glyph-name="registeredsuperior" horiz-adv-x="304" 
d="M107 656h43q46 0 46 -42q0 -24 -19 -36l25 -52h-34l-22 46h-6v-46h-33v130zM140 601h8q15 0 15 13t-15 13h-8v-26zM32 590q0 50 35 85t85 35t85 -35t35 -85t-35 -85t-85 -35t-85 35t-35 85zM66 590q0 -35 25.5 -60.5t60.5 -25.5t60.5 25.5t25.5 60.5t-25.5 60.5
t-60.5 25.5t-60.5 -25.5t-25.5 -60.5z" />
    <glyph glyph-name="trademarksuperior" horiz-adv-x="304" 
d="M12 700h102v-32h-33v-109h-36v109h-33v32zM239 630h-2l-22 -71h-24l-23 71h-2v-71h-33v141h46l23 -70h2l23 70h45v-141h-33v71z" />
    <glyph glyph-name="numbersign.alt" horiz-adv-x="610" 
d="M218 652h90l-30 -184h100l30 184h90l-30 -184h90l-14 -87h-90l-18 -111h90l-14 -86h-90l-30 -184h-90l30 184h-100l-30 -184h-90l30 184h-90l14 86h90l18 111h-90l14 87h90zM264 381l-18 -111h100l18 111h-100z" />
    <glyph glyph-name="arrow_up" horiz-adv-x="920" 
d="M920 282h-396v-282h-128v282h-396l460 582zM460 689l-236 -298h472z" />
    <glyph glyph-name="arrow_down" horiz-adv-x="920" 
d="M920 572l-460 -582l-460 582h396v282h128v-282h396zM460 165l236 298h-472z" />
    <glyph glyph-name="Zeacute" 
d="M512 205q0 -109 -67 -162t-173 -53q-96 0 -163.5 47t-76.5 139l130 34q7 -44 37 -72t73 -28t69 27t26 68q0 105 -95 105h-44v120h34q47 0 68.5 19.5t21.5 60.5q0 37 -20.5 58.5t-59.5 21.5q-87 0 -101 -90l-129 34q34 176 230 176q95 0 157.5 -50t62.5 -150
q0 -44 -22.5 -82t-57.5 -57v-2q100 -54 100 -164zM285 866h140l-120 -130h-100z" />
    <glyph glyph-name="zeacute" horiz-adv-x="442" 
d="M410 151q0 -81 -55 -121t-138 -40q-79 0 -127.5 31t-67.5 116l124 29q12 -76 71 -76q31 0 48 17.5t17 43.5q0 63 -65 63h-35v100h28q61 0 61 47q0 22 -13.5 35.5t-40.5 13.5q-58 0 -69 -69l-122 30q38 139 191 139q75 0 126.5 -37.5t51.5 -111.5q0 -55 -55 -95
q70 -42 70 -115zM232 690h140l-120 -130h-100z" />
    <glyph glyph-name="Esacute" 
d="M272 -10q-141 0 -190.5 86.5t-49.5 298.5q0 78 11 135.5t37 104.5t74 71t118 24q200 0 235 -205l-131 -20q-10 63 -35.5 84t-68.5 21q-36 0 -56.5 -16t-32 -63.5t-11.5 -135.5q0 -115 11.5 -173t31 -75t57.5 -17q51 0 75.5 29.5t33.5 105.5l131 -20q-18 -122 -69 -178.5
t-171 -56.5zM292 866h140l-120 -130h-100z" />
    <glyph glyph-name="esacute" horiz-adv-x="444" 
d="M242 690h140l-120 -130h-100zM309 173l123 -19q-9 -89 -59.5 -126.5t-140.5 -37.5q-107 0 -153.5 59.5t-46.5 201.5q0 259 200 259q175 0 196 -145l-121 -19q-12 64 -75 64q-36 0 -53 -33.5t-17 -125.5q0 -93 17 -127t53 -34q32 0 52 17t25 66z" />
    <glyph glyph-name="RUBLE_SIGN" horiz-adv-x="554" 
d="M12 260v120h80v320h215q108 0 171.5 -55t63.5 -165q0 -106 -58.5 -163t-168.5 -57h-83v-40h170v-100h-170v-120h-140v120h-80v100h80v40h-80zM232 380h67q60 0 81.5 22.5t21.5 77.5q0 51 -22.5 75.5t-82.5 24.5h-65v-200z" />
    </font>
</defs>
</svg>
